<svg width="66" height="24" viewBox="0 0 66 24" fill="none" xmlns="http://www.w3.org/2000/svg">
<path fill-rule="evenodd" clip-rule="evenodd" d="M10.2792 0.347729C12.7524 0.347729 15.2252 0.349742 17.6984 0.346924C17.7318 0.670961 17.7286 0.997815 17.7326 1.32427C17.7306 8.60926 17.7318 15.8947 17.7326 23.1788C15.3498 23.1849 12.9671 23.1796 10.5831 23.1821C10.5839 22.569 10.5851 21.9572 10.5819 21.3445C9.64455 22.4185 8.37117 23.2215 6.94626 23.4248C5.45944 23.6317 3.83033 23.4175 2.60278 22.4953C1.4536 21.6219 0.808873 20.2496 0.462391 18.8786C0.0568233 17.3188 0.0797344 15.6922 0.146056 14.0937C0.315277 12.2002 0.927046 10.2194 2.37769 8.91277C3.6374 7.77522 5.39111 7.41495 7.04192 7.42944C8.21039 7.48338 9.34791 7.89799 10.2792 8.60725C10.278 5.85394 10.2772 3.10023 10.2792 0.347729ZM8.54642 13.5608C7.54476 13.7568 6.85742 14.7768 6.91129 15.7719C6.96836 16.2541 7.1404 16.7359 7.47442 17.0962C7.95756 17.6481 8.77553 17.9178 9.47854 17.6654C10.5095 17.357 11.1213 16.1543 10.8476 15.1282C10.6337 14.1195 9.57943 13.3342 8.54642 13.5608Z" fill="#E62925"/>
<path d="M40.0717 7.65498C41.3347 7.33617 42.6744 7.36717 43.9321 7.68919C44.9329 7.95003 45.8546 8.57315 46.3719 9.48206C46.8916 10.3761 47.0532 11.4243 47.101 12.4423C47.1063 16.0216 47.1018 19.6017 47.103 23.181C44.6186 23.183 42.1341 23.181 39.6497 23.1822C39.6485 20.226 39.6473 17.2698 39.6505 14.3148C39.6609 14.0323 39.5882 13.7102 39.3362 13.5492C38.8739 13.2731 38.2577 13.2751 37.7935 13.5444C37.5374 13.705 37.4659 14.0323 37.4739 14.316C37.4751 17.271 37.4751 20.2272 37.4751 23.1822C34.9907 23.181 32.5058 23.1822 30.0226 23.1822C30.0214 18.0499 30.0234 12.9181 30.0214 7.7858C32.4073 7.78379 34.7945 7.7858 37.1805 7.78459C37.1785 8.41817 37.1765 9.05176 37.1805 9.68534C37.8461 8.66976 38.8996 7.95204 40.0717 7.65498Z" fill="#E62925"/>
<path fill-rule="evenodd" clip-rule="evenodd" d="M56.9883 7.46505C60.013 7.22716 63.1281 8.80065 64.6639 11.44C65.6157 13.0023 65.9124 14.9123 65.596 16.7039C65.2548 18.5672 64.1723 20.2675 62.6739 21.4151C61.1891 22.5736 59.3047 23.1843 57.4268 23.1698C55.9255 23.1356 54.4238 22.7302 53.1432 21.9356C51.5008 20.945 50.2202 19.3486 49.6631 17.5058C49.0972 15.6904 49.2692 13.6656 50.1153 11.9633C51.3774 9.36781 54.1179 7.60634 56.9883 7.46505ZM56.977 13.2514C56.0397 13.4756 55.2816 14.3636 55.3158 15.3462C55.3238 16.4556 56.3351 17.4031 57.4268 17.4204C58.3714 17.484 59.3308 16.8734 59.6251 15.9625C59.9852 15.0536 59.5069 13.9514 58.668 13.4933C58.1652 13.183 57.5442 13.1339 56.977 13.2514Z" fill="#E62925"/>
<path d="M20.2515 7.84131C20.4991 7.86103 20.799 7.80106 20.9803 8.01923C22.4012 9.44096 24.8523 9.59594 26.4689 8.42015C26.6856 8.26719 26.8576 8.05868 27.0787 7.91014C27.2841 7.87794 27.4935 7.89243 27.7017 7.89323C27.6977 12.9893 27.7009 18.0837 27.6997 23.1785C25.214 23.1858 22.7288 23.1773 20.2431 23.1825C20.2471 18.0692 20.2318 12.9547 20.2515 7.84131Z" fill="#E62925"/>
<path fill-rule="evenodd" clip-rule="evenodd" d="M23.4485 0.378857C25.0607 0.158673 26.7778 1.09536 27.3824 2.62538C27.8189 3.7098 27.6782 5.01963 26.9772 5.96155C26.0531 7.26615 24.2468 7.82526 22.7403 7.31405C21.7675 7.00571 20.9202 6.29001 20.5002 5.35212C20.0524 4.39007 20.095 3.21428 20.6091 2.28685C21.1722 1.23665 22.2736 0.520951 23.4485 0.378857ZM21.7591 1.93383C22.1791 1.69392 22.5952 1.42785 22.9424 1.08932C22.4135 0.990703 21.7716 1.34896 21.7591 1.93383Z" fill="#0F9A49"/>
</svg>
