<svg width="582" height="564" viewBox="0 0 582 564" fill="#31C48D" xmlns="http://www.w3.org/2000/svg">
<g filter="url(#filter0_d_97_1152)">
<path fill-rule="evenodd" clip-rule="evenodd" d="M535.936 382.012C529.04 370.16 532.926 375.541 541.654 370.321C540.752 370.863 521.054 347.399 519.524 345.159C512.227 334.48 516.296 326.416 511.569 315.732C506.625 304.565 508.806 299.624 511.984 287.758C515.12 276.077 514.506 267.327 502.972 260.876C497.117 257.596 487.67 260.702 486.95 252.755C486.408 246.721 494.906 240.057 498.749 236.665C510.36 226.419 526.322 223.036 525.827 206.035C524.997 177.672 509.97 152.254 502.938 125.318C500.679 116.634 502.357 102.043 496.513 95.0467C491.937 89.5721 489.647 92.4609 483.202 89.3637C474.705 85.2758 478.113 76.8575 468.3 78.9132C466.09 79.3761 461.256 83.3435 458.281 84.3223C453.676 85.8337 448.467 86.233 443.669 86.7411C421.246 89.0953 398.223 87.3377 375.896 84.7451C363.336 83.2888 350.797 81.4013 338.402 78.8852C333.737 77.9359 329.082 76.9279 324.473 75.7463C316.934 73.818 316.445 74.5295 309.512 77.3056C296.981 82.3256 281.282 88.0275 269.253 77.9762C261.587 71.5783 261.08 56.4764 258.59 47.2469C259.324 46.1046 266.882 51.1195 278.149 56.8047C280.706 58.0954 283.004 55.4933 281.126 53.3293C260.142 29.1446 217.927 44.1438 200.798 51.4263C191.257 55.4822 182.583 56.2072 173.045 58.9053C162.523 61.8783 159.954 71.5495 152.985 78.31C146.508 84.5951 137.479 83.5241 128.42 85.062C114.752 87.3805 101.281 90.6904 87.7785 93.8144C81.3824 95.289 76.6266 97.4702 70.8185 100.302C65.3641 102.961 63.3967 102.003 58.0646 102.829C52.7324 103.655 53.2405 100.073 51.6948 106.149C50.9585 109.018 53.7842 112.718 53.9209 115.595C54.2051 121.394 52.7523 126.302 54.1011 133.421C55.602 141.313 59.9793 150.842 58.7996 158.976C56.9014 172.064 32.8665 181.462 41.8208 195.234C45.5043 200.896 54.0831 202.661 58.464 207.778C65.5578 216.063 58.8735 218.125 56.9605 226.653C55.1004 234.93 62.7766 238.915 63.5812 246.935C63.802 249.108 61.5576 251.57 61.7448 253.912C61.807 254.719 64.1894 255.721 64.2057 256.327C64.2916 260.374 64.7733 261.756 62.2745 266.271C60.61 269.285 54.6606 273.621 54.5528 277.449C54.4158 282.238 60.6164 285.169 60.9773 289.9C61.3092 294.252 57.059 295.881 59.245 300.142C60.9425 303.435 66.2563 303.355 68.4701 306.551C76.4063 317.973 67.214 345.219 61.0527 355.811C71.0778 355.945 69.4017 333.656 81.9179 347.554C86.4364 352.566 80.5279 357.06 90.6286 362.494C94.5455 364.596 99.3501 364.197 103.152 366.263C109.47 369.701 108.148 370.598 110.861 376.555C112.417 377.671 114.878 373.391 116.313 375.139C118.105 377.331 117.034 380.592 118.693 382.896C124.261 380.985 136.558 375.734 140.121 383.513C144.232 392.492 129.365 389.527 128.071 396.393C127.116 401.466 138.197 406.136 140.861 410.612C142.903 414.046 142.077 418.995 144.77 422.323C149.77 428.494 150.288 425.747 155.399 423.273C156.728 422.625 157.396 420.065 159.177 419.201C161.225 418.211 165.507 419.623 167.182 418.138C170.918 414.814 167.988 413.318 165.853 408.964C158.046 393.101 171.356 402.135 179.575 408.278C185.142 412.441 187.825 413.377 194.637 414.209C196.818 414.484 201.821 414.456 203.231 414.612C204.191 414.719 203.943 410.109 205.819 411.113C207.798 412.183 209.395 419.444 207.945 421.437C207.636 421.852 196.744 422.157 198.335 424.691C199.645 426.768 203.353 426.397 204.794 428.152C206.315 430.005 206.753 433.589 208.203 434.947C210.269 436.863 216.511 443.556 220.621 438.958C221.86 437.565 213.946 432.926 222.487 433.694C222.629 433.711 228.841 439.252 229.517 439.663C233.869 442.355 240.223 441.881 244.136 444.339C250.861 448.574 247.184 454.148 251.055 460.516C252.554 462.987 253.13 462.742 254.818 464.827C257.293 464.962 259.466 465.846 261.325 467.469C262.181 470.192 262.33 472.951 261.761 475.756C264.02 481.169 267.215 478.198 268.619 481.033C269.645 483.113 267.772 487.856 269.123 489.645C273.073 494.885 279.066 488.425 281.958 485.724C284.586 483.277 289.782 473.911 293.892 473.931C298.082 473.94 297.111 477.658 299.044 480.32C299.367 482.564 300.107 484.664 301.261 486.62C302.528 486.614 303.796 486.608 305.063 486.602C304.371 487.933 303.926 489.339 303.745 490.825C310.773 493.456 313.422 488.385 313.607 497.326C313.661 499.93 309.252 505.108 311.547 507.055C312.539 507.898 315.987 505.191 317.007 505.483C315.514 505.054 324.535 507.108 323.244 507.182C328.913 506.846 324.223 509.406 329.711 504.898C333.684 501.63 335.381 496.146 340.074 493.351C346.688 489.413 347.043 492.47 353.988 493.264C360.513 494.008 357.308 489.564 365.26 494.041C369.81 496.589 373.347 504.455 379.496 497.441C382.424 494.106 379.444 491.842 379.557 491.704C385.788 483.954 381.548 492.926 386.985 491.525C391.785 490.299 393.094 487.957 399.109 488.051C405.412 488.155 412.41 489.887 418.295 492.09C430.718 496.736 430.25 506.247 441.878 511.452C447.079 513.78 476.662 519.523 478.1 524.156C477.978 523.31 476.478 512.514 475.579 512.888C468.066 516.004 470.023 511.299 470.431 504.205C470.959 495.145 464.106 487.086 466.679 477.94C471.314 461.475 490.59 443.12 500.974 429.952C505.749 423.892 510.627 415.936 516.725 411.092C522.704 406.345 527.929 409.498 533.716 407.091C545.155 402.335 540.525 389.897 535.936 382.012Z" fill="white"/>
</g>
<defs>
<filter id="filter0_d_97_1152" x="0.429405" y="0.709862" width="580.624" height="562.847" filterUnits="userSpaceOnUse" color-interpolation-filters="sRGB">
<feFlood flood-opacity="0" result="BackgroundImageFix"/>
<feColorMatrix in="SourceAlpha" type="matrix" values="0 0 0 0 0 0 0 0 0 0 0 0 0 0 0 0 0 0 127 0" result="hardAlpha"/>
<feOffset/>
<feGaussianBlur stdDeviation="19.7"/>
<feComposite in2="hardAlpha" operator="out"/>
<feColorMatrix type="matrix" values="0 0 0 0 0.121569 0 0 0 0 0.164706 0 0 0 0 0.215686 0 0 0 0.08 0"/>
<feBlend mode="normal" in2="BackgroundImageFix" result="effect1_dropShadow_97_1152"/>
<feBlend mode="normal" in="SourceGraphic" in2="effect1_dropShadow_97_1152" result="shape"/>
</filter>
</defs>
</svg>
