<svg width="40" height="40" viewBox="0 0 40 40" fill="none" xmlns="http://www.w3.org/2000/svg">
<mask id="mask0_110_1676" style="mask-type:alpha" maskUnits="userSpaceOnUse" x="0" y="0" width="40" height="40">
<rect width="40" height="40" fill="#D9D9D9"/>
</mask>
<g mask="url(#mask0_110_1676)">
<path d="M18.8333 33.7918C17.8784 33.7918 17.061 33.4539 16.381 32.778C15.7011 32.102 15.3611 31.2868 15.3611 30.3323C15.3611 29.3778 15.7011 28.5606 16.381 27.8809C17.061 27.2012 17.8784 26.8613 18.8333 26.8613L19.8541 25.8823C20.081 25.6553 20.3463 25.4747 20.6502 25.3405C20.954 25.2062 21.265 25.139 21.5833 25.139C22.2592 25.139 22.831 25.3798 23.2986 25.8613C23.7662 26.3428 24 26.9189 24 27.5898V28.3335C24 28.8891 24.1944 29.3613 24.5833 29.7502C24.9722 30.1391 25.4444 30.3335 26 30.3335C26.4315 30.3335 26.8199 30.2034 27.1652 29.9431C27.5104 29.6829 27.7549 29.3503 27.8988 28.9455L28.4167 27.514C28.6667 26.8103 29.079 26.2384 29.6538 25.7981C30.2286 25.3578 30.8896 25.1377 31.6369 25.1377C31.953 24.3423 32.2014 23.5094 32.3819 22.639C32.5625 21.7687 32.6527 20.8798 32.6527 19.9724C32.6527 17.4076 32.0162 15.0766 30.743 12.9793C29.4699 10.8821 27.7963 9.22239 25.7222 8.00016V9.61125C25.7222 10.5585 25.3849 11.3694 24.7104 12.0439C24.0359 12.7184 23.225 13.0557 22.2777 13.0557H20.5555V16.528C20.5555 17.0002 20.3865 17.4053 20.0486 17.7432C19.7106 18.0812 19.3055 18.2502 18.8333 18.2502H17.1111V21.1675C17.1111 21.7967 16.8947 22.3289 16.462 22.764C16.0293 23.1992 15.4957 23.4168 14.8611 23.4168C14.4722 23.4168 14.1088 23.3289 13.7708 23.153C13.4328 22.977 13.1574 22.7363 12.9444 22.4307L10.1923 18.2502H8.47216V19.9638C8.47216 20.8492 8.17586 21.6113 7.58328 22.2502C6.9907 22.8891 6.2731 23.2641 5.43049 23.3752C6.18977 26.3566 7.81014 28.8381 10.2916 30.8196C12.7731 32.8011 15.6203 33.7918 18.8333 33.7918ZM22.2905 23.4168C21.8098 23.4168 21.4004 23.2478 21.0624 22.9099C20.7245 22.5719 20.5555 22.1668 20.5555 21.6946C20.5555 21.2224 20.7245 20.8173 21.0624 20.4793C21.4004 20.1414 21.8098 19.9724 22.2905 19.9724H23.9872C24.4679 19.9724 24.8773 20.1414 25.2152 20.4793C25.5532 20.8173 25.7222 21.2224 25.7222 21.6946C25.7222 22.1668 25.5532 22.5719 25.2152 22.9099C24.8773 23.2478 24.4679 23.4168 23.9872 23.4168H22.2905ZM26.3023 18.2502C25.7397 18.2502 25.2847 18.0256 24.9375 17.5765C24.5903 17.1275 24.5053 16.6307 24.6825 16.0861L25.3472 14.1946C25.4768 13.8428 25.6823 13.565 25.9637 13.3613C26.245 13.1576 26.5545 13.0557 26.8921 13.0557C27.4547 13.0557 27.9097 13.2802 28.2569 13.7293C28.6041 14.1784 28.6891 14.6752 28.5119 15.2197L27.8472 17.1113C27.7176 17.4631 27.5121 17.7409 27.2307 17.9446C26.9494 18.1483 26.6399 18.2502 26.3023 18.2502ZM18.8407 36.6668C16.5401 36.6668 14.378 36.2293 12.3546 35.3543C10.3311 34.4793 8.56478 33.2872 7.05553 31.778C5.54625 30.2687 4.35412 28.5016 3.47911 26.4768C2.60414 24.452 2.16666 22.2885 2.16666 19.9863C2.16666 17.6841 2.60416 15.5206 3.47916 13.4957C4.35416 11.4709 5.54628 9.7085 7.05553 8.2085C8.56478 6.7085 10.3318 5.521 12.3567 4.646C14.3815 3.771 16.545 3.3335 18.8472 3.3335C21.1494 3.3335 23.3129 3.771 25.3377 4.646C27.3625 5.521 29.125 6.7085 30.625 8.2085C32.125 9.7085 33.3125 11.4724 34.1875 13.5002C35.0625 15.5279 35.5 17.6922 35.5 19.9928C35.5 22.2934 35.0625 24.4554 34.1875 26.4789C33.3125 28.5023 32.125 30.267 30.625 31.7728C29.125 33.2787 27.3611 34.4708 25.3333 35.3492C23.3055 36.2276 21.1413 36.6668 18.8407 36.6668Z" fill="white"/>
</g>
</svg>
