<svg width="41" height="40" viewBox="0 0 41 40" fill="none" xmlns="http://www.w3.org/2000/svg">
<mask id="mask0_110_1682" style="mask-type:alpha" maskUnits="userSpaceOnUse" x="0" y="0" width="41" height="40">
<rect x="0.5" width="40" height="40" fill="#D9D9D9"/>
</mask>
<g mask="url(#mask0_110_1682)">
<path d="M16 25.5279L20.5 22.1945L24.8889 25.5279L23.1111 20.139L27.6111 16.8057H22.1667L20.5 11.4446L18.8334 16.8057H13.3889L17.8056 20.139L16 25.5279ZM20.5 36.639C16.6204 35.6668 13.4283 33.4237 10.9236 29.9098C8.41901 26.3959 7.16669 22.5279 7.16669 18.3057V8.30566L20.5 3.30566L33.8334 8.30566V18.3057C33.8334 22.5279 32.581 26.3959 30.0764 29.9098C27.5718 33.4237 24.3797 35.6668 20.5 36.639ZM20.5 33.7501C23.5926 32.7409 26.125 30.8011 28.0973 27.9307C30.0695 25.0603 31.0556 21.852 31.0556 18.3057V10.2362L20.5 6.264L9.94444 10.2362V18.3057C9.94444 21.852 10.9305 25.0603 12.9028 27.9307C14.875 30.8011 17.4074 32.7409 20.5 33.7501Z" fill="white"/>
</g>
</svg>
