<svg width="127" height="59" viewBox="0 0 127 59" fill="none" xmlns="http://www.w3.org/2000/svg">
<path d="M7.94617 42.5657H0V0H7.94617V42.5657Z" fill="white"/>
<path d="M36.7038 39.029C36.0732 39.5875 35.3794 40.1459 34.6857 40.6423C33.992 41.1387 33.2352 41.573 32.4154 41.9453C31.5956 42.3176 30.8388 42.6279 29.9559 42.814C29.136 43.0622 28.2531 43.1243 27.3702 43.1243C25.4783 43.1243 23.6494 42.814 22.0097 42.1315C20.307 41.4489 18.8565 40.5182 17.5952 39.2772C16.3339 38.0362 15.3248 36.547 14.6311 34.8097C13.9374 33.0723 13.559 31.0867 13.559 28.915V12.0997H21.4421V28.915C21.4421 29.9698 21.6313 30.8385 21.9466 31.6452C22.262 32.4518 22.7034 33.1343 23.2079 33.6928C23.7755 34.2512 24.4062 34.6856 25.0999 34.9338C25.7936 35.182 26.6134 35.3681 27.4333 35.3681C28.2531 35.3681 29.0099 35.182 29.7036 34.8097C30.3973 34.4374 31.028 33.941 31.5956 33.3205C32.1631 32.7 32.5415 32.0175 32.8569 31.2729C33.1722 30.5283 33.2983 29.7216 33.2983 28.915V12.0997H41.1814V42.5658H39.2895L36.7038 39.029Z" fill="white"/>
<path d="M55.1187 42.5658H47.2356V12.0996H49.1275L51.7132 15.078C52.9745 13.9611 54.425 13.0924 56.0647 12.4719C57.7044 11.8514 59.344 11.5412 61.1099 11.5412C63.0018 11.5412 64.7676 11.9135 66.4704 12.596C68.1731 13.2785 69.6236 14.2713 70.8849 15.5123C72.1462 16.7533 73.1552 18.1804 73.8489 19.8558C74.5427 21.5311 74.921 23.2685 74.921 25.1299V42.5658H67.0379V25.192C67.0379 24.3853 66.9118 23.6408 66.5965 22.9582C66.2812 22.2757 65.8397 21.6552 65.3352 21.0967C64.7676 20.5383 64.2 20.166 63.4433 19.8558C62.7495 19.5455 61.9928 19.4214 61.1729 19.4214C60.3531 19.4214 59.5332 19.5455 58.8395 19.8558C58.0827 20.166 57.4521 20.6003 56.9476 21.0967C56.38 21.6552 56.0016 22.2757 55.6863 22.9582C55.371 23.6408 55.2448 24.4474 55.2448 25.192V42.5658H55.1187Z" fill="white"/>
<path d="M110.49 42.5658H108.598L105.508 38.4085C104.751 39.0911 103.931 39.7116 103.111 40.27C102.291 40.8284 101.408 41.3248 100.462 41.7592C99.5164 42.1935 98.5704 42.5038 97.6244 42.752C96.6785 43.0002 95.6694 43.1243 94.6604 43.1243C92.4531 43.1243 90.435 42.752 88.5431 42.0694C86.6511 41.3248 84.9484 40.332 83.4979 38.9049C82.0474 37.5398 80.9123 35.8645 80.0924 33.8789C79.2726 31.8934 78.8311 29.5975 78.8311 27.0535C78.8311 24.6957 79.2726 22.5239 80.0924 20.5384C80.9123 18.5528 82.0474 16.8775 83.4979 15.4503C84.9484 14.0232 86.5881 12.9063 88.5431 12.1617C90.435 11.3551 92.5162 10.9828 94.6604 10.9828C95.6694 10.9828 96.6785 11.1069 97.6244 11.3551C98.5704 11.6033 99.5794 11.9135 100.462 12.4099C101.408 12.8443 102.291 13.3407 103.111 13.9611C103.931 14.5196 104.751 15.2021 105.444 15.8847L108.535 12.2858H110.427V42.5658H110.49ZM102.543 27.0535C102.543 25.9987 102.354 24.9439 101.913 23.9511C101.471 22.9583 100.904 22.0896 100.21 21.283C99.5164 20.5384 98.6335 19.9179 97.6875 19.4215C96.7415 18.9871 95.7325 18.7389 94.6604 18.7389C93.5883 18.7389 92.5792 18.9251 91.6333 19.2974C90.6873 19.6697 89.8675 20.1661 89.1737 20.9107C88.48 21.5932 87.9125 22.4619 87.5341 23.5167C87.1557 24.5716 86.9034 25.7505 86.9034 27.0535C86.9034 28.3566 87.0926 29.5355 87.5341 30.5903C87.9125 31.6452 88.48 32.5139 89.1737 33.1964C89.8675 33.8789 90.6873 34.4374 91.6333 34.8097C92.5792 35.182 93.5883 35.3681 94.6604 35.3681C95.7325 35.3681 96.7415 35.1199 97.6875 34.6856C98.6335 34.2512 99.4533 33.6307 100.21 32.8241C100.904 32.0795 101.471 31.1488 101.913 30.156C102.354 29.1632 102.543 28.1704 102.543 27.0535Z" fill="white"/>
<path d="M120.328 44.8616C123.637 44.8616 126.319 42.2224 126.319 38.9669C126.319 35.7113 123.637 33.0722 120.328 33.0722C117.019 33.0722 114.337 35.7113 114.337 38.9669C114.337 42.2224 117.019 44.8616 120.328 44.8616Z" fill="#0E9F6E"/>
<path d="M55.1817 54.7894C54.7403 55.1617 54.2357 55.4099 53.7312 55.6581C53.1636 55.8443 52.6591 55.9684 52.0285 55.9684C51.587 55.9684 51.1456 55.9063 50.7672 55.7822C50.3888 55.6581 49.9473 55.534 49.632 55.2858C49.2536 55.0997 48.9383 54.8515 48.623 54.5413C48.3076 54.231 48.0554 53.9208 47.8662 53.5485C47.677 53.1762 47.4878 52.8039 47.3617 52.4316C47.2355 51.9972 47.1725 51.6249 47.1725 51.1906C47.1725 50.7563 47.2355 50.3219 47.3617 49.9496C47.4878 49.5153 47.6139 49.143 47.8662 48.8327C48.0554 48.4604 48.3076 48.1502 48.623 47.8399C48.9383 47.5297 49.2536 47.2815 49.632 47.0954C50.0104 46.9092 50.3888 46.7231 50.7672 46.599C51.2086 46.4749 51.587 46.4128 52.0285 46.4128C52.5961 46.4128 53.1636 46.5369 53.7312 46.7231C54.2988 46.9092 54.7403 47.2194 55.1817 47.5917L54.1727 49.205C53.9204 48.8948 53.6051 48.7086 53.2267 48.5225C52.8483 48.3363 52.4699 48.2743 52.0285 48.2743C51.587 48.2743 51.2086 48.3363 50.8933 48.5225C50.5149 48.7086 50.1996 48.8948 49.9473 49.143C49.6951 49.3912 49.4428 49.7014 49.3167 50.0737C49.1906 50.446 49.0644 50.8183 49.0644 51.1906C49.0644 51.5629 49.1275 51.9972 49.3167 52.3075C49.4428 52.6798 49.6951 52.99 49.9473 53.2382C50.1996 53.4864 50.5149 53.7346 50.8933 53.8587C51.2717 53.9828 51.6501 54.1069 52.0285 54.1069C52.4069 54.1069 52.8483 54.0449 53.2267 53.8587C53.6051 53.6726 53.9204 53.4864 54.1727 53.1762L55.1817 54.7894Z" fill="white"/>
<path d="M62.6234 52.2454C62.6234 52.7418 62.5603 53.2382 62.3711 53.6726C62.1819 54.1069 61.9297 54.4792 61.6143 54.7894C61.299 55.0997 60.9206 55.3479 60.4792 55.534C60.0377 55.7202 59.5963 55.8443 59.0917 55.8443C58.5872 55.8443 58.1458 55.7202 57.7043 55.534C57.2629 55.3479 56.8845 55.0997 56.5692 54.7894C56.2538 54.4792 56.0016 54.1069 55.8124 53.6726C55.6232 53.2382 55.5601 52.7418 55.5601 52.2454C55.5601 51.749 55.6232 51.2526 55.8124 50.8183C56.0016 50.384 56.2538 50.0117 56.5692 49.6394C56.8845 49.3291 57.2629 49.0809 57.7043 48.8948C58.1458 48.7086 58.5872 48.6466 59.0917 48.6466C59.5963 48.6466 60.0377 48.7086 60.4792 48.8948C60.9206 49.0809 61.299 49.3291 61.6143 49.6394C61.9297 49.9496 62.1819 50.3219 62.3711 50.7562C62.4973 51.1906 62.6234 51.687 62.6234 52.2454ZM60.7945 52.2454C60.7945 51.9352 60.7314 51.687 60.6684 51.5008C60.6053 51.2526 60.4792 51.0665 60.29 50.8803C60.1008 50.6942 59.9116 50.5701 59.7224 50.5081C59.5332 50.446 59.2809 50.3839 59.0287 50.3839C58.7764 50.3839 58.5872 50.446 58.335 50.5081C58.1458 50.5701 57.9566 50.7562 57.7674 50.8803C57.5782 51.0665 57.4521 51.2526 57.389 51.5008C57.3259 51.749 57.2629 51.9972 57.2629 52.2454C57.2629 52.4936 57.3259 52.7418 57.389 52.99C57.4521 53.2382 57.5782 53.4244 57.7674 53.6105C57.9566 53.7967 58.0827 53.9208 58.335 53.9828C58.5242 54.1069 58.7764 54.1069 59.0287 54.1069C59.2809 54.1069 59.5332 54.0449 59.7224 53.9828C59.9116 53.9208 60.1008 53.7346 60.29 53.6105C60.4792 53.4244 60.6053 53.2382 60.6684 52.99C60.7314 52.7418 60.7945 52.4936 60.7945 52.2454Z" fill="white"/>
<path d="M65.3351 55.7202H63.5693V48.8327H64.0108L64.5784 49.6394C64.8937 49.3912 65.209 49.205 65.5874 49.0189C65.9658 48.8948 66.3442 48.8327 66.7226 48.8327H68.2992V50.5701H66.7226C66.5334 50.5701 66.3442 50.6322 66.2181 50.6942C66.0289 50.7563 65.9027 50.8804 65.7766 51.0045C65.6505 51.1286 65.5874 51.2527 65.4613 51.4388C65.3982 51.6249 65.3351 51.749 65.3351 51.9352V55.7202Z" fill="white"/>
<path d="M70.885 58.3262H69.1191V48.8327H69.5606L70.2543 49.6393C70.4435 49.5152 70.5696 49.3291 70.7588 49.205C70.948 49.0809 71.1372 48.9568 71.3264 48.8327C71.5156 48.7086 71.7679 48.6465 71.9571 48.5845C72.2093 48.5224 72.3985 48.5224 72.6508 48.5224C73.1553 48.5224 73.5967 48.5845 74.0382 48.7706C74.4797 48.9568 74.858 49.205 75.1734 49.5152C75.4887 49.8255 75.7409 50.1978 75.9301 50.6321C76.1193 51.0664 76.1824 51.5628 76.1824 52.1213C76.1824 52.6797 76.1193 53.1761 75.9301 53.6725C75.7409 54.1069 75.4887 54.4792 75.1734 54.7894C74.858 55.0996 74.4797 55.3478 74.0382 55.534C73.5967 55.7201 73.1553 55.7822 72.6508 55.7822C72.5246 55.7822 72.3354 55.7822 72.2093 55.7201C72.0832 55.6581 71.894 55.6581 71.7679 55.596C71.6417 55.534 71.4525 55.4719 71.3264 55.4099C71.2003 55.3478 71.0111 55.2858 70.885 55.1617V58.3262ZM74.4796 52.2454C74.4796 51.9351 74.4166 51.6869 74.3535 51.4387C74.2905 51.1905 74.1643 51.0044 73.9751 50.8803C73.7859 50.6942 73.5967 50.5701 73.4075 50.508C73.2184 50.446 72.9661 50.3839 72.7138 50.3839C72.4616 50.3839 72.2724 50.446 72.0201 50.508C71.7679 50.5701 71.6417 50.6942 71.4525 50.8803C71.2633 51.0664 71.1372 51.2526 71.0741 51.4387C71.0111 51.6869 70.948 51.9351 70.948 52.2454C70.948 52.5556 71.0111 52.8038 71.0741 52.99C71.1372 53.2382 71.3264 53.4243 71.4525 53.6105C71.6417 53.7966 71.8309 53.9207 72.0201 53.9828C72.2093 54.0448 72.4616 54.1069 72.7138 54.1069C72.9661 54.1069 73.2184 54.0448 73.4075 53.9828C73.5967 53.9207 73.7859 53.7346 73.9751 53.6105C74.1643 53.4243 74.2905 53.2382 74.3535 52.99C74.4166 52.7418 74.4796 52.4936 74.4796 52.2454Z" fill="white"/>
<path d="M84.0025 52.2454C84.0025 52.7418 83.9394 53.2382 83.7502 53.6726C83.561 54.1069 83.3088 54.4792 82.9934 54.7894C82.6781 55.0997 82.2997 55.3479 81.8583 55.534C81.4168 55.7202 80.9754 55.8443 80.4708 55.8443C79.9663 55.8443 79.5249 55.7202 79.0834 55.534C78.642 55.3479 78.2636 55.0997 77.9482 54.7894C77.6329 54.4792 77.3807 54.1069 77.1915 53.6726C77.0023 53.2382 76.9392 52.7418 76.9392 52.2454C76.9392 51.749 77.0023 51.2526 77.1915 50.8183C77.3807 50.384 77.6329 50.0117 77.9482 49.6394C78.2636 49.3291 78.642 49.0809 79.0834 48.8948C79.5249 48.7086 79.9663 48.6466 80.4708 48.6466C80.9754 48.6466 81.4168 48.7086 81.8583 48.8948C82.2997 49.0809 82.6781 49.3291 82.9934 49.6394C83.3088 49.9496 83.561 50.3219 83.7502 50.7562C83.8763 51.1906 84.0025 51.687 84.0025 52.2454ZM82.1736 52.2454C82.1736 51.9352 82.1105 51.687 82.0475 51.5008C81.9844 51.2526 81.8583 51.0665 81.6691 50.8803C81.4799 50.6942 81.2907 50.5701 81.1015 50.5081C80.9123 50.446 80.66 50.3839 80.4078 50.3839C80.1555 50.3839 79.9663 50.446 79.7141 50.5081C79.5249 50.5701 79.3357 50.7562 79.1465 50.8803C78.9573 51.0665 78.8312 51.2526 78.7681 51.5008C78.705 51.749 78.642 51.9972 78.642 52.2454C78.642 52.4936 78.705 52.7418 78.7681 52.99C78.8312 53.2382 78.9573 53.4244 79.1465 53.6105C79.3357 53.7967 79.4618 53.9208 79.7141 53.9828C79.9033 54.1069 80.1555 54.1069 80.4078 54.1069C80.66 54.1069 80.9123 54.0449 81.1015 53.9828C81.2907 53.9208 81.4799 53.7346 81.6691 53.6105C81.8583 53.4244 81.9844 53.2382 82.0475 52.99C82.1736 52.7418 82.1736 52.4936 82.1736 52.2454Z" fill="white"/>
<path d="M86.7772 55.7202H85.0114V48.8327H85.4528L86.0204 49.6394C86.3357 49.3912 86.651 49.205 87.0294 49.0189C87.4078 48.8948 87.7862 48.8327 88.1646 48.8327H89.7412V50.5701H88.1646C87.9754 50.5701 87.7862 50.6322 87.6601 50.6942C87.4709 50.7563 87.3448 50.8804 87.2186 51.0045C87.0925 51.1286 87.0294 51.2527 86.9033 51.4388C86.8402 51.6249 86.7772 51.749 86.7772 51.9352V55.7202Z" fill="white"/>
<path d="M97.1199 55.7202H96.6784L95.9847 54.7894C95.7955 54.9135 95.6063 55.0997 95.4171 55.2238C95.2279 55.3479 95.0387 55.472 94.8495 55.534C94.6603 55.6581 94.4081 55.7202 94.2189 55.7822C94.0297 55.8443 93.7774 55.8443 93.5252 55.8443C93.0206 55.8443 92.5792 55.7822 92.1377 55.5961C91.6963 55.4099 91.3179 55.2238 91.0026 54.9135C90.6872 54.6033 90.435 54.231 90.2458 53.7966C90.0566 53.3623 89.9935 52.8038 89.9935 52.2454C89.9935 51.687 90.0566 51.1906 90.2458 50.7562C90.435 50.3219 90.6872 49.9496 91.0026 49.5773C91.3179 49.267 91.6963 49.0188 92.1377 48.8327C92.5792 48.6465 93.0206 48.5845 93.5252 48.5845C93.7774 48.5845 93.9666 48.5845 94.2189 48.6466C94.4711 48.7086 94.6603 48.7707 94.8495 48.8947C95.0387 49.0188 95.2279 49.1429 95.4171 49.267C95.6063 49.3911 95.7955 49.5152 95.9216 49.7014L96.6153 48.8947H97.0568V55.7202H97.1199ZM95.354 52.2454C95.354 51.9972 95.291 51.749 95.2279 51.5629C95.1648 51.3147 94.9756 51.1285 94.8495 50.9424C94.6603 50.7562 94.4711 50.6321 94.2819 50.508C94.0927 50.3839 93.8405 50.3219 93.5882 50.3219C93.336 50.3219 93.0837 50.3839 92.8945 50.446C92.7053 50.508 92.5161 50.6321 92.3269 50.8183C92.2008 51.0044 92.0747 51.1906 91.9485 51.3767C91.8855 51.6249 91.8224 51.8731 91.8224 52.1834C91.8224 52.4936 91.8855 52.7418 91.9485 52.99C92.0116 53.2382 92.1377 53.4243 92.3269 53.5484C92.5161 53.7346 92.7053 53.7966 92.8945 53.9207C93.0837 53.9828 93.336 54.0448 93.5882 54.0448C93.8405 54.0448 94.0297 53.9828 94.2819 53.8587C94.4711 53.7346 94.6603 53.6105 94.8495 53.4243C95.0387 53.2382 95.1648 53.052 95.2279 52.8038C95.291 52.6797 95.354 52.4315 95.354 52.2454Z" fill="white"/>
<path d="M101.976 55.7202C101.534 55.7202 101.156 55.6581 100.778 55.472C100.399 55.2858 100.084 55.0997 99.7686 54.7894C99.4532 54.4792 99.2641 54.1689 99.0749 53.7966C98.8857 53.4243 98.8226 53.052 98.8226 52.6177V50.5701H97.9397V48.8327H98.8226V46.1025H100.588V48.8327H103.3V50.5701H100.588V52.6177C100.588 52.8038 100.651 52.99 100.715 53.1141C100.778 53.3002 100.904 53.4243 101.03 53.5484C101.156 53.6725 101.282 53.7966 101.471 53.8587C101.661 53.9207 101.787 53.9828 101.976 53.9828H103.3V55.7202H101.976Z" fill="white"/>
<path d="M107.147 54.0449C107.21 54.0449 107.273 54.1069 107.336 54.1069C107.399 54.1069 107.462 54.1069 107.526 54.1069C107.715 54.1069 107.841 54.1069 108.03 54.0449C108.219 53.9828 108.345 53.9208 108.472 53.8587C108.598 53.7967 108.724 53.6726 108.85 53.5485C108.976 53.4244 109.039 53.3003 109.102 53.1141L110.427 54.4171C110.237 54.6653 110.048 54.8515 109.859 55.0376C109.67 55.2238 109.417 55.3479 109.165 55.534C108.913 55.6581 108.661 55.7822 108.408 55.8443C108.156 55.9063 107.841 55.8443 107.526 55.8443C107.021 55.8443 106.58 55.7822 106.138 55.5961C105.697 55.4099 105.318 55.1617 105.003 54.8515C104.688 54.5412 104.435 54.169 104.246 53.7346C104.057 53.3003 103.994 52.8039 103.994 52.2454C103.994 51.687 104.057 51.1906 104.246 50.7562C104.435 50.3219 104.688 49.9496 105.003 49.6394C105.318 49.3291 105.697 49.0809 106.138 48.8948C106.58 48.7086 107.021 48.6466 107.526 48.6466C107.841 48.6466 108.093 48.7086 108.408 48.7707C108.661 48.8327 108.976 48.9568 109.228 49.0809C109.481 49.205 109.733 49.3912 109.922 49.5773C110.111 49.7635 110.3 49.9496 110.49 50.1978L107.147 54.0449ZM108.03 50.446C107.967 50.384 107.841 50.3839 107.778 50.3839C107.715 50.3839 107.589 50.3839 107.526 50.3839C107.273 50.3839 107.021 50.446 106.832 50.5081C106.643 50.5701 106.453 50.6942 106.264 50.8803C106.138 51.0665 106.012 51.2526 105.886 51.4388C105.823 51.687 105.76 51.9352 105.76 52.1834C105.76 52.2454 105.76 52.3075 105.76 52.4316C105.76 52.4936 105.76 52.6177 105.823 52.6798C105.823 52.7418 105.823 52.8659 105.886 52.928C105.886 52.99 105.949 53.0521 105.949 53.1141L108.03 50.446Z" fill="white"/>
</svg>
