<svg width="40" height="40" viewBox="0 0 40 40" fill="none" xmlns="http://www.w3.org/2000/svg">
<mask id="mask0_110_1688" style="mask-type:alpha" maskUnits="userSpaceOnUse" x="0" y="0" width="40" height="40">
<rect width="40" height="40" fill="#D9D9D9"/>
</mask>
<g mask="url(#mask0_110_1688)">
<path d="M20 14.1945L14.5556 8.75012L20 3.30566L25.4444 8.75012L20 14.1945ZM1.66669 33.3335V26.6668C1.66669 25.8149 1.9653 25.0927 2.56252 24.5001C3.15974 23.9075 3.87965 23.6112 4.72223 23.6112H10.4584C10.9584 23.6112 11.4352 23.7362 11.8889 23.9862C12.3426 24.2362 12.7223 24.5788 13.0278 25.014C13.8334 26.1529 14.8496 27.0372 16.0764 27.6668C17.3033 28.2964 18.6111 28.6112 20 28.6112C21.3982 28.6112 22.7107 28.2964 23.9375 27.6668C25.1644 27.0372 26.1852 26.1529 27 25.014C27.3241 24.5788 27.706 24.2362 28.1459 23.9862C28.5857 23.7362 29.0509 23.6112 29.5417 23.6112H35.2778C36.1296 23.6112 36.8519 23.9075 37.4445 24.5001C38.0371 25.0927 38.3334 25.8149 38.3334 26.6668V33.3335H27.2223V28.764C26.2315 29.6066 25.1181 30.2547 23.882 30.7085C22.6459 31.1622 21.3519 31.389 20 31.389C18.6574 31.389 17.3704 31.1598 16.1389 30.7015C14.9074 30.2432 13.787 29.5927 12.7778 28.7501V33.3335H1.66669ZM6.66669 21.1112C5.37038 21.1112 4.25927 20.6482 3.33335 19.7223C2.40744 18.7964 1.94448 17.6853 1.94448 16.389C1.94448 15.0649 2.40744 13.9469 3.33335 13.0348C4.25927 12.1228 5.37038 11.6668 6.66669 11.6668C7.99077 11.6668 9.10883 12.1228 10.0209 13.0348C10.9329 13.9469 11.3889 15.0649 11.3889 16.389C11.3889 17.6853 10.9329 18.7964 10.0209 19.7223C9.10883 20.6482 7.99077 21.1112 6.66669 21.1112ZM33.3334 21.1112C32.037 21.1112 30.9259 20.6482 30 19.7223C29.0741 18.7964 28.6111 17.6853 28.6111 16.389C28.6111 15.0649 29.0741 13.9469 30 13.0348C30.9259 12.1228 32.037 11.6668 33.3334 11.6668C34.6574 11.6668 35.7755 12.1228 36.6875 13.0348C37.5996 13.9469 38.0556 15.0649 38.0556 16.389C38.0556 17.6853 37.5996 18.7964 36.6875 19.7223C35.7755 20.6482 34.6574 21.1112 33.3334 21.1112Z" fill="white"/>
</g>
</svg>
