<svg width="55" height="24" viewBox="0 0 55 24" fill="none" xmlns="http://www.w3.org/2000/svg">
<path d="M9.44083 19.0674L9.86996 16.7702C16.8791 21.3647 25.8908 21.3647 32.8999 16.7702L33.329 19.0674C26.3199 24.7734 16.4499 24.7734 9.44083 19.0674ZM37.1912 8.47063C37.9779 8.61884 38.8362 8.54474 39.5514 8.10012C40.1235 7.7296 40.4811 7.13677 40.6242 6.46984C40.7672 5.80291 40.8388 5.21008 40.9103 4.54315H43.6281C43.6281 4.83956 43.6281 5.21008 43.6281 5.5806C43.5566 6.46984 43.342 7.28498 42.9844 8.02601C42.6983 8.61884 42.1977 9.13757 41.697 9.50808C41.554 9.58219 41.4109 9.73039 41.2679 9.8045C41.4109 10.0268 41.554 10.3232 41.6255 10.5455C42.3407 11.8794 43.0559 13.1392 43.8427 14.473C43.9142 14.6212 43.9857 14.7694 44.0572 14.9176C44.1287 15.0659 44.1287 15.2141 44.1287 15.3623H41.1248L38.7646 10.9161L37.1912 11.0643V15.4364H34.2588V0.763865H37.1912V8.47063ZM8.72562 4.46904C8.72562 4.61725 8.6541 4.76546 8.58257 4.98777C8.08192 5.87701 7.58127 6.76625 7.08062 7.65549C6.15085 9.28577 5.22107 10.9161 4.36281 12.5463C4.36281 12.6204 4.29129 12.6945 4.29129 12.7686C5.07802 12.7686 5.79324 12.7686 6.50845 12.7686C7.22367 12.7686 7.93888 12.7686 8.72562 12.7686V15.4364H0C0 15.2882 0.0715215 15.14 0.143043 14.9917C0.572172 14.1766 1.0013 13.4356 1.43043 12.6945C1.85956 11.9535 2.21717 11.2866 2.64629 10.5455C3.21847 9.50808 3.79064 8.47063 4.36281 7.50729C4.43433 7.43318 4.43433 7.35908 4.50585 7.21087C4.14824 7.21087 3.79064 7.21087 3.43303 7.21087C3.07542 7.21087 2.71782 7.21087 2.43173 7.21087H0.357607V4.46904H8.72562ZM4.64889 3.43159C4.21977 3.5057 3.86216 3.35749 3.57607 3.06107C3.14694 2.69056 2.93238 2.02363 3.14694 1.4308C3.28999 0.912072 3.79064 0.46745 4.36281 0.393347C4.86346 0.24514 5.43563 0.46745 5.79324 0.837968C6.22237 1.28259 6.29389 1.87542 6.15085 2.46825C5.93628 3.06107 5.43563 3.43159 4.86346 3.43159C4.79194 3.5057 4.72042 3.5057 4.64889 3.43159ZM32.1847 7.87781C31.8986 6.84036 31.3264 5.87701 30.4681 5.21008C29.6814 4.61725 28.8231 4.32084 27.8934 4.32084C27.1066 4.24673 26.2484 4.39494 25.4616 4.69135C25.3901 4.69135 25.2471 4.76546 25.1756 4.76546V0.763865H22.2432V14.7694C22.6723 14.9176 23.1014 14.9917 23.5306 15.0659C24.2458 15.2882 24.961 15.4364 25.7477 15.5846C26.8921 15.7328 28.0364 15.5846 29.1808 15.2141C30.8973 14.6953 32.1847 13.2133 32.3992 11.3607C32.5423 10.2491 32.5423 8.98936 32.1847 7.87781ZM29.3953 11.5089C29.1808 12.2499 28.6086 12.8427 27.8934 12.991C27.0351 13.2133 26.1053 13.1392 25.3186 12.8427C25.3186 12.8427 25.2471 12.8427 25.2471 12.7686V7.35908C26.2484 6.61804 27.6073 6.61805 28.6086 7.28498C28.9662 7.58139 29.1808 7.95191 29.3238 8.39653C29.6099 9.35988 29.6814 10.4714 29.3953 11.5089ZM19.5254 5.21008C18.8101 4.91366 18.0234 4.69135 17.2367 4.54315C16.1638 4.32084 15.091 4.24673 14.0182 4.32084C13.0884 4.39494 12.1586 4.83956 11.4434 5.5806C10.7997 6.32163 10.2991 7.21087 10.156 8.17422C10.013 8.91526 9.94148 9.65629 9.94148 10.3973C9.94148 11.3607 10.156 12.2499 10.5852 13.0651C10.9428 13.732 11.4434 14.3248 12.0871 14.6953C13.5176 15.5105 15.1625 15.8069 16.736 15.5105C17.8804 15.3623 18.9532 14.9917 20.0975 14.7694V5.50649C19.9545 5.43239 19.7399 5.28418 19.5254 5.21008ZM17.2367 12.8427C16.2354 13.2133 15.1625 13.2874 14.1612 12.8427C13.6606 12.6204 13.303 12.2499 13.0884 11.6571C12.7308 10.4714 12.7308 9.28577 13.1599 8.10012C13.446 7.35908 14.1612 6.84036 14.8765 6.76625C15.5917 6.69215 16.3784 6.76625 17.0221 7.13677C17.0936 7.13677 17.0936 7.21087 17.1651 7.21087L17.2367 12.8427ZM54.0702 5.06187C53.212 4.76546 52.3537 4.54315 51.4239 4.39494C50.5657 4.24673 49.6359 4.24673 48.7061 4.39494C47.0611 4.69135 45.7737 5.95111 45.2731 7.58139C44.9155 8.84115 44.7724 10.175 44.987 11.5089C45.13 12.6945 45.7022 13.8061 46.632 14.5471C46.8465 14.6953 47.1326 14.9176 47.3472 14.9917C47.9194 15.2882 48.6346 15.5105 49.2783 15.5846C50.065 15.7328 50.8518 15.7328 51.6385 15.5846C52.7828 15.3623 53.9272 15.0659 55 14.8435V5.50649C54.7139 5.35828 54.4278 5.21008 54.0702 5.06187ZM52.2107 12.8427C52.0676 12.9168 51.9961 12.9168 51.8531 12.9168C51.2809 13.0651 50.7087 13.1392 50.065 13.1392C49.3498 13.1392 48.7061 12.7686 48.277 12.1758C48.0624 11.8794 47.9194 11.5089 47.8479 11.1384C47.7048 10.2491 47.7048 9.35988 47.9909 8.47063C48.2055 7.58139 48.9922 6.91446 49.8505 6.84036C50.6372 6.69215 51.4239 6.84036 52.1391 7.28498L52.2107 12.8427Z" fill="#01672C"/>
</svg>
