<svg width="365" height="365" viewBox="0 0 365 365" fill="none" xmlns="http://www.w3.org/2000/svg">
<path d="M175.988 357.025L178.27 365L177.548 364.961L175.439 357.485L175.806 357.505L172.793 364.701L172.215 364.669L170.128 357.194L170.461 357.213L167.493 364.411L166.804 364.373L169.977 356.696L170.632 356.732L172.653 363.992L172.431 363.979L175.354 356.99L175.988 357.025Z" fill="url(#paint0_linear_417_3755)"/>
<path d="M165.02 360.223C164.923 361.047 164.703 361.738 164.36 362.294C164.01 362.857 163.554 363.266 162.994 363.521C162.432 363.783 161.783 363.87 161.046 363.783C160.324 363.698 159.721 363.462 159.236 363.076C158.744 362.697 158.393 362.193 158.183 361.563C157.966 360.94 157.905 360.22 158.002 359.403C158.1 358.579 158.328 357.885 158.686 357.323C159.044 356.761 159.507 356.349 160.076 356.088C160.637 355.826 161.275 355.737 161.99 355.822C162.719 355.908 163.326 356.144 163.811 356.53C164.296 356.916 164.642 357.424 164.852 358.053C165.061 358.682 165.117 359.406 165.02 360.223ZM164.291 360.136C164.417 359.076 164.279 358.22 163.878 357.568C163.477 356.924 162.823 356.548 161.917 356.44C161.04 356.337 160.32 356.55 159.757 357.08C159.192 357.618 158.847 358.417 158.722 359.477C158.595 360.545 158.744 361.398 159.169 362.038C159.585 362.685 160.236 363.06 161.12 363.165C162.026 363.272 162.749 363.059 163.291 362.526C163.831 362 164.165 361.204 164.291 360.136Z" fill="url(#paint1_linear_417_3755)"/>
<path d="M155.948 355.117L154.619 362.843L151.571 362.319C150.774 362.182 150.188 361.89 149.813 361.442C149.439 360.994 149.31 360.43 149.427 359.751C149.502 359.312 149.666 358.953 149.917 358.673C150.167 358.4 150.482 358.21 150.862 358.102C151.241 358.001 151.66 357.991 152.121 358.07L151.892 358.155L151.738 358.128C151.439 358.077 151.184 357.958 150.975 357.772C150.765 357.593 150.62 357.319 150.541 356.952L149.928 354.083L150.673 354.211L151.241 356.948C151.316 357.345 151.476 357.617 151.722 357.764C151.966 357.919 152.293 358.032 152.703 358.102L154.676 358.441L155.268 355L155.948 355.117ZM154.578 359.011L152.297 358.619C151.676 358.512 151.181 358.567 150.813 358.782C150.438 358.995 150.206 359.354 150.12 359.858C150.032 360.37 150.13 360.785 150.413 361.105C150.689 361.43 151.137 361.646 151.758 361.753L154.039 362.145L154.578 359.011Z" fill="url(#paint2_linear_417_3755)"/>
<path d="M147.642 353.623L145.968 361.282L141.206 360.242L141.332 359.666L145.441 360.563L146.078 357.652L142.208 356.807L142.334 356.232L146.204 357.076L146.864 354.057L142.755 353.16L142.88 352.584L147.642 353.623Z" fill="url(#paint3_linear_417_3755)"/>
<path d="M137.4 351.104C138.145 351.302 138.739 351.624 139.181 352.07C139.614 352.522 139.89 353.074 140.008 353.727C140.127 354.379 140.08 355.107 139.868 355.909C139.655 356.712 139.336 357.364 138.912 357.865C138.486 358.373 137.974 358.713 137.376 358.885C136.769 359.062 136.092 359.051 135.346 358.854C134.801 358.71 134.34 358.496 133.963 358.212C133.583 357.935 133.279 357.59 133.051 357.177L133.473 356.714C133.739 357.129 134.029 357.455 134.342 357.691C134.654 357.935 135.043 358.118 135.509 358.241C136.419 358.482 137.187 358.379 137.813 357.931C138.436 357.49 138.884 356.753 139.158 355.722C139.431 354.69 139.407 353.825 139.086 353.126C138.764 352.428 138.148 351.958 137.237 351.717C136.771 351.594 136.343 351.557 135.954 351.608C135.563 351.665 135.149 351.809 134.712 352.038L134.575 351.427C134.977 351.181 135.417 351.028 135.893 350.97C136.359 350.917 136.862 350.962 137.4 351.104Z" fill="url(#paint4_linear_417_3755)"/>
<path d="M133.071 350.003L132.918 350.491L126.145 355.735L126.238 355.438L130.91 356.9L130.727 357.483L125.429 355.826L125.578 355.348L132.362 350.107L132.273 350.394L127.473 348.892L127.656 348.308L133.071 350.003Z" fill="url(#paint5_linear_417_3755)"/>
<path d="M125.549 347.598L122.865 354.964L122.217 354.728L123.45 351.343L123.429 351.335L118.515 353.381L117.648 353.065L123.202 350.791L123.054 351.163L120.029 345.589L120.918 345.913L123.605 350.855L123.626 350.862L124.901 347.362L125.549 347.598Z" fill="url(#paint6_linear_417_3755)"/>
<path d="M118.361 344.914L115.463 352.199L114.822 351.944L117.72 344.66L118.361 344.914Z" fill="url(#paint7_linear_417_3755)"/>
<path d="M111.755 342.19L108.423 349.287L107.879 349.032L108.055 340.959L108.347 341.096L102.238 346.388L101.704 346.137L105.035 339.04L105.609 339.31L102.623 345.672L102.351 345.544L108.168 340.509L108.622 340.721L108.466 348.41L108.194 348.283L111.18 341.921L111.755 342.19Z" fill="url(#paint8_linear_417_3755)"/>
<path d="M103.154 338.097L96.43 343.384L95.8812 343.089L96.5394 334.542L97.1764 334.884L96.9688 337.335L96.7637 337.036L101.017 339.321L100.605 339.289L102.517 337.754L103.154 338.097ZM96.5607 342.507L100.35 339.481L100.512 339.719L96.7098 337.676L96.9396 337.648L96.5411 342.496L96.5607 342.507Z" fill="url(#paint9_linear_417_3755)"/>
<path d="M93.1179 332.509L91.9976 340.976L91.3581 340.593L92.4367 332.671L92.6945 332.826L86.194 337.502L85.5736 337.13L92.5356 332.16L93.1179 332.509Z" fill="url(#paint10_linear_417_3755)"/>
<path d="M88.0246 329.374L83.6863 335.905L79.6256 333.212L79.9518 332.721L83.4562 335.045L85.1053 332.562L81.8049 330.373L82.131 329.882L85.4315 332.071L87.1422 329.496L83.6377 327.172L83.9638 326.68L88.0246 329.374Z" fill="url(#paint11_linear_417_3755)"/>
<path d="M81.9698 325.309L77.34 331.637L74.8428 329.813C74.1896 329.336 73.7957 328.814 73.6596 328.246C73.5236 327.678 73.6592 327.116 74.0663 326.56C74.329 326.201 74.6353 325.952 74.9853 325.812C75.3308 325.679 75.6977 325.649 76.0859 325.721C76.4696 325.799 76.8501 325.976 77.2274 326.252L76.9845 326.226L76.8587 326.134C76.613 325.955 76.438 325.735 76.3343 325.476C76.2257 325.222 76.2174 324.913 76.3097 324.548L77.0383 321.706L77.6491 322.152L76.9388 324.857C76.8291 325.245 76.8517 325.56 77.006 325.801C77.1559 326.048 77.3984 326.294 77.7339 326.539L79.3508 327.721L81.4129 324.902L81.9698 325.309ZM79.0093 328.187L77.1409 326.822C76.6315 326.45 76.1642 326.279 75.7392 326.308C75.3077 326.332 74.9409 326.551 74.6388 326.964C74.3324 327.383 74.235 327.799 74.3469 328.211C74.448 328.624 74.7533 329.017 75.2627 329.39L77.1311 330.754L79.0093 328.187Z" fill="url(#paint12_linear_417_3755)"/>
<path d="M75.2075 320.267L70.3724 326.44L69.8292 326.015L74.6642 319.842L75.2075 320.267Z" fill="url(#paint13_linear_417_3755)"/>
<path d="M69.9559 315.894C70.5469 316.39 70.9471 316.934 71.1565 317.526C71.3556 318.119 71.3697 318.736 71.1994 319.377C71.0291 320.018 70.6764 320.656 70.1422 321.292C69.6079 321.928 69.0422 322.382 68.4445 322.655C67.842 322.934 67.234 323.023 66.6198 322.924C65.9954 322.826 65.3877 322.529 64.7967 322.033C64.3651 321.671 64.0389 321.281 63.818 320.864C63.5924 320.452 63.4648 320.011 63.434 319.54L64.0134 319.3C64.0769 319.789 64.2006 320.207 64.3834 320.554C64.5614 320.907 64.8351 321.238 65.2045 321.548C65.9258 322.153 66.665 322.386 67.4216 322.247C68.1734 322.113 68.8928 321.637 69.5797 320.82C70.2667 320.002 70.6135 319.209 70.6202 318.441C70.6269 317.672 70.2693 316.985 69.548 316.379C69.1785 316.069 68.807 315.854 68.4334 315.735C68.0551 315.62 67.6189 315.574 67.1261 315.596L67.2623 314.984C67.7319 314.933 68.1941 314.982 68.6494 315.132C69.0945 315.283 69.5298 315.537 69.9559 315.894Z" fill="url(#paint14_linear_417_3755)"/>
<path d="M61.3201 309.594C61.5835 309.845 61.7684 310.139 61.876 310.477C61.9785 310.821 61.992 311.167 61.916 311.515C61.8406 311.863 61.6743 312.17 61.4182 312.438C61.1826 312.685 60.8983 312.86 60.5647 312.962C60.2259 313.059 59.8827 313.07 59.5344 312.994C59.1759 312.918 58.8546 312.745 58.5699 312.474C58.3072 312.223 58.1271 311.928 58.0298 311.59C57.9279 311.257 57.9122 310.919 57.9825 310.576C58.0482 310.229 58.2136 309.915 58.4799 309.637C58.7308 309.374 59.0286 309.197 59.3725 309.105C59.7113 309.007 60.0549 309.002 60.4032 309.088C60.7463 309.17 61.0521 309.338 61.3201 309.594Z" fill="url(#paint15_linear_417_3755)"/>
<path d="M54.6194 301.437L50.5944 308.692L50.1113 308.154L53.9057 301.375L54.151 301.648L46.9304 304.612L46.5439 304.182L50.3532 297.42L50.5762 297.668L43.3853 300.665L42.9245 300.152L50.5987 296.96L51.0372 297.449L47.3332 304.012L47.1846 303.847L54.1958 300.966L54.6194 301.437Z" fill="url(#paint16_linear_417_3755)"/>
<path d="M44.6058 295.966C43.9537 296.48 43.3096 296.813 42.6739 296.966C42.0274 297.116 41.4157 297.084 40.8393 296.869C40.2566 296.658 39.7355 296.261 39.276 295.68C38.8254 295.109 38.5649 294.516 38.495 293.902C38.4144 293.285 38.5222 292.68 38.8195 292.087C39.106 291.493 39.5724 290.941 40.2187 290.431C40.8708 289.916 41.5223 289.587 42.1732 289.442C42.8241 289.296 43.4431 289.332 44.0302 289.549C44.6125 289.76 45.1267 290.147 45.5729 290.712C46.028 291.288 46.2904 291.883 46.3608 292.499C46.4306 293.113 46.3174 293.718 46.0207 294.311C45.7234 294.904 45.2521 295.456 44.6058 295.966ZM44.1508 295.39C44.9892 294.728 45.4969 294.025 45.6745 293.281C45.8458 292.541 45.6492 291.813 45.0838 291.098C44.5366 290.405 43.8762 290.048 43.1026 290.026C42.3227 290.008 41.514 290.33 40.6756 290.991C39.8314 291.657 39.3329 292.366 39.1813 293.119C39.0189 293.871 39.2135 294.596 39.7651 295.294C40.3305 296.009 40.9928 296.369 41.7532 296.375C42.5071 296.384 43.3065 296.056 44.1508 295.39Z" fill="url(#paint17_linear_417_3755)"/>
<path d="M41.7931 285.944L35.3903 290.473L33.603 287.95C33.1355 287.29 32.928 286.67 32.9796 286.089C33.0312 285.507 33.3386 285.017 33.9016 284.619C34.2649 284.362 34.6346 284.223 35.0107 284.202C35.3807 284.186 35.7382 284.274 36.0832 284.466C36.4221 284.662 36.7266 284.95 36.9967 285.332L36.7746 285.23L36.6846 285.103C36.5087 284.854 36.4126 284.591 36.3969 284.312C36.3746 284.037 36.4651 283.741 36.6684 283.425L38.2634 280.962L38.7006 281.579L37.1669 283.917C36.9394 284.25 36.8607 284.556 36.9302 284.834C36.9937 285.116 37.1453 285.426 37.3855 285.765L38.5427 287.398L41.3945 285.381L41.7931 285.944ZM38.0705 287.733L36.7332 285.845C36.3685 285.33 35.9801 285.019 35.5678 284.912C35.1509 284.798 34.7335 284.889 34.3158 285.184C33.8919 285.484 33.6675 285.847 33.6424 286.274C33.6067 286.698 33.7711 287.168 34.1357 287.682L35.473 289.57L38.0705 287.733Z" fill="url(#paint18_linear_417_3755)"/>
<path d="M36.9683 279.019L30.369 283.257L27.7339 279.16L28.23 278.842L30.5042 282.378L33.0128 280.766L30.8711 277.436L31.3672 277.118L33.5089 280.448L36.1112 278.776L33.8371 275.241L34.3332 274.922L36.9683 279.019Z" fill="url(#paint19_linear_417_3755)"/>
<path d="M31.4979 270.002C31.8864 270.669 32.0791 271.316 32.076 271.944C32.0628 272.569 31.8679 273.155 31.4904 273.7C31.1132 274.246 30.5655 274.727 29.8476 275.145C29.1297 275.563 28.4436 275.8 27.7888 275.855C27.1279 275.914 26.5249 275.793 25.9804 275.492C25.4259 275.189 24.9544 274.704 24.5658 274.038C24.2822 273.552 24.107 273.074 24.0404 272.607C23.9677 272.144 23.9964 271.685 24.1268 271.231L24.7532 271.201C24.648 271.683 24.6225 272.118 24.6772 272.506C24.7258 272.899 24.8714 273.303 25.1139 273.719C25.5884 274.533 26.2049 275.001 26.9642 275.125C27.717 275.253 28.5549 275.049 29.4779 274.511C30.4009 273.974 30.9955 273.345 31.2618 272.623C31.5281 271.902 31.4244 271.135 30.9499 270.321C30.7074 269.906 30.4304 269.578 30.119 269.338C29.8015 269.103 29.4072 268.912 28.9355 268.766L29.2706 268.236C29.7298 268.347 30.1482 268.549 30.5261 268.844C30.8941 269.136 31.2178 269.522 31.4979 270.002Z" fill="url(#paint20_linear_417_3755)"/>
<path d="M29.2195 266.179L28.7663 266.416L20.2643 265.348L20.5402 265.203L22.8144 269.536L22.2724 269.82L19.6933 264.906L20.1367 264.674L28.6439 265.752L28.3778 265.892L26.0416 261.441L26.5835 261.157L29.2195 266.179Z" fill="url(#paint21_linear_417_3755)"/>
<path d="M25.5922 259.164L18.4856 262.483L18.1934 261.859L21.4594 260.333L21.45 260.313L16.5253 258.293L16.1342 257.457L21.6735 259.767L21.3059 259.926L23.1041 253.845L23.5046 254.701L21.9137 260.096L21.9231 260.116L25.3 258.539L25.5922 259.164Z" fill="url(#paint22_linear_417_3755)"/>
<path d="M22.3993 252.188L15.1991 255.299L14.9252 254.667L22.1254 251.555L22.3993 252.188Z" fill="url(#paint23_linear_417_3755)"/>
<path d="M19.6455 245.591L12.2711 248.264L12.0661 247.7L17.8959 242.109L18.006 242.412L9.94088 241.847L9.73974 241.293L17.1142 238.619L17.3305 239.215L10.7197 241.611L10.6172 241.329L18.2944 241.87L18.4652 242.34L12.9208 247.674L12.8183 247.392L19.4291 244.995L19.6455 245.591Z" fill="url(#paint24_linear_417_3755)"/>
<path d="M16.4479 236.618L7.95051 235.617L7.77037 235.021L14.2765 229.433L14.4856 230.125L12.6063 231.714L12.6728 231.358L14.0689 235.977L13.7997 235.664L16.2388 235.926L16.4479 236.618ZM8.66257 235.088L13.4842 235.619L13.4303 235.903L12.1822 231.773L12.3647 231.915L8.65614 235.067L8.66257 235.088Z" fill="url(#paint25_linear_417_3755)"/>
<path d="M13.2935 225.592L6.51714 230.798L6.33479 230.076L12.6963 225.227L12.7698 225.518L4.8623 224.243L4.68538 223.542L13.1274 224.935L13.2935 225.592Z" fill="url(#paint26_linear_417_3755)"/>
<path d="M11.9008 219.774L4.21392 221.339L3.24114 216.567L3.81903 216.449L4.65855 220.568L7.58067 219.973L6.79 216.094L7.36789 215.977L8.15855 219.855L11.1897 219.238L10.3502 215.12L10.9281 215.002L11.9008 219.774Z" fill="url(#paint27_linear_417_3755)"/>
<path d="M10.4842 212.62L2.73428 213.835L2.25464 210.782C2.12918 209.983 2.21895 209.335 2.52369 208.837C2.82843 208.339 3.32157 208.037 4.00313 207.93C4.44284 207.861 4.83578 207.901 5.18196 208.049C5.52082 208.199 5.80212 208.436 6.02589 208.761C6.24233 209.087 6.38678 209.481 6.45924 209.942L6.30554 209.752L6.28139 209.599C6.23419 209.298 6.26545 209.019 6.37529 208.762C6.47768 208.506 6.6902 208.281 7.01283 208.088L9.53697 206.589L9.65429 207.336L7.24072 208.75C6.88878 208.948 6.68227 209.187 6.62108 209.467C6.55256 209.747 6.55047 210.093 6.61492 210.503L6.92548 212.48L10.3772 211.939L10.4842 212.62ZM6.35385 212.57L5.99499 210.285C5.89713 209.662 5.68737 209.211 5.36569 208.932C5.04277 208.645 4.62848 208.541 4.12281 208.62C3.60982 208.701 3.24729 208.926 3.03522 209.297C2.8146 209.662 2.75321 210.155 2.85106 210.778L3.20992 213.063L6.35385 212.57Z" fill="url(#paint28_linear_417_3755)"/>
<path d="M9.25718 204.275L1.47159 205.236L1.38701 204.552L9.1726 203.591L9.25718 204.275Z" fill="url(#paint29_linear_417_3755)"/>
<path d="M8.62796 197.488C8.69627 198.256 8.59552 198.924 8.3257 199.491C8.04786 200.051 7.62213 200.498 7.04859 200.832C6.47505 201.166 5.77446 201.37 4.94688 201.443C4.1193 201.517 3.3975 201.44 2.78139 201.211C2.15789 200.984 1.66368 200.618 1.29867 200.115C0.925635 199.605 0.704961 198.966 0.636645 198.198C0.586763 197.637 0.631109 197.131 0.769683 196.679C0.900866 196.228 1.12202 195.826 1.433 195.47L2.01279 195.709C1.71244 196.1 1.50451 196.484 1.38888 196.859C1.26586 197.234 1.22571 197.662 1.26841 198.142C1.35179 199.079 1.71074 199.766 2.34521 200.201C2.97228 200.636 3.81784 200.807 4.88187 200.712C5.9459 200.618 6.75181 200.301 7.2996 199.761C7.84739 199.221 8.07956 198.482 7.99619 197.544C7.95348 197.064 7.84217 196.65 7.66223 196.302C7.47491 195.954 7.19884 195.613 6.83418 195.281L7.36275 194.944C7.73157 195.239 8.02431 195.6 8.24105 196.027C8.44979 196.448 8.57871 196.935 8.62796 197.488Z" fill="url(#paint30_linear_417_3755)"/>
<path d="M6.96098 186.929C6.97015 187.293 6.89336 187.632 6.73064 187.947C6.5605 188.263 6.32575 188.518 6.02636 188.71C5.72699 188.904 5.3919 189.004 5.0211 189.014C4.67998 189.022 4.35525 188.945 4.04689 188.782C3.73835 188.612 3.48756 188.378 3.2945 188.078C3.09384 187.772 2.98857 187.423 2.97866 187.03C2.96951 186.667 3.0501 186.331 3.22041 186.023C3.38333 185.715 3.61077 185.465 3.90272 185.271C4.1945 185.072 4.5332 184.966 4.91882 184.957C5.28219 184.947 5.61825 185.032 5.92697 185.209C6.2355 185.379 6.48268 185.618 6.66851 185.925C6.85416 186.224 6.95165 186.559 6.96098 186.929Z" fill="url(#paint31_linear_417_3755)"/>
<path d="M7.97563 176.42L0 178.721L0.0377022 177.999L7.51396 175.873L7.49482 176.239L0.285956 173.247L0.316118 172.669L7.79121 170.565L7.77381 170.898L0.562632 167.95L0.598594 167.262L8.28943 170.413L8.25521 171.068L0.995306 173.105L1.00691 172.883L8.00869 175.787L7.97563 176.42Z" fill="url(#paint32_linear_417_3755)"/>
<path d="M4.74674 165.478C3.92141 165.383 3.22978 165.164 2.67177 164.824C2.10731 164.475 1.69684 164.021 1.44054 163.462C1.17688 162.901 1.08766 162.253 1.1729 161.517C1.25649 160.795 1.4906 160.192 1.87541 159.706C2.25367 159.213 2.75742 158.861 3.38675 158.65C4.00953 158.431 4.7299 158.368 5.54786 158.463C6.3732 158.558 7.06768 158.784 7.63132 159.14C8.19496 159.497 8.6082 159.959 8.87105 160.526C9.13472 161.087 9.22521 161.724 9.14253 162.438C9.05811 163.167 8.82355 163.774 8.43874 164.26C8.05393 164.745 7.54695 165.093 6.91763 165.304C6.2883 165.515 5.5647 165.573 4.74674 165.478ZM4.83115 164.749C5.8923 164.872 6.74863 164.732 7.40007 164.33C8.04413 163.927 8.41865 163.272 8.52353 162.367C8.62503 161.49 8.40957 160.771 7.87714 160.21C7.33735 159.648 6.53692 159.305 5.47578 159.182C4.40727 159.059 3.55333 159.21 2.91408 159.636C2.26828 160.054 1.89422 160.705 1.7919 161.588C1.68702 162.494 1.90202 163.217 2.43701 163.756C2.96462 164.294 3.76264 164.626 4.83115 164.749Z" fill="url(#paint33_linear_417_3755)"/>
<path d="M9.83019 156.409L2.09502 155.103L2.61031 152.056C2.74495 151.259 3.03594 150.673 3.48312 150.297C3.93031 149.922 4.49403 149.791 5.17428 149.906C5.61316 149.98 5.97318 150.142 6.25434 150.393C6.52819 150.642 6.71957 150.956 6.8285 151.335C6.9301 151.713 6.94198 152.133 6.86413 152.593L6.77866 152.364L6.80461 152.211C6.85532 151.911 6.97348 151.657 7.15936 151.448C7.33792 151.237 7.61081 151.091 7.97803 151.011L10.8478 150.39L10.7217 151.136L7.9838 151.711C7.58733 151.787 7.31558 151.948 7.16868 152.194C7.01448 152.438 6.90282 152.765 6.83358 153.174L6.49994 155.148L9.94511 155.729L9.83019 156.409ZM5.92941 155.052L6.31494 152.771C6.41993 152.15 6.36431 151.656 6.14809 151.288C5.93306 150.914 5.57319 150.684 5.06848 150.599C4.55647 150.512 4.14099 150.611 3.82206 150.896C3.497 151.172 3.28198 151.62 3.17699 152.241L2.79145 154.522L5.92941 155.052Z" fill="url(#paint34_linear_417_3755)"/>
<path d="M11.3022 148.099L3.63325 146.448L4.65935 141.688L5.23588 141.812L4.35035 145.92L7.26563 146.548L8.09963 142.678L8.67616 142.802L7.84216 146.672L10.8662 147.323L11.7518 143.214L12.3283 143.338L11.3022 148.099Z" fill="url(#paint35_linear_417_3755)"/>
<path d="M13.7939 137.851C13.5986 138.597 13.2782 139.192 12.8327 139.634C12.3818 140.068 11.8299 140.346 11.1773 140.466C10.5246 140.587 9.79646 140.542 8.99266 140.332C8.18885 140.122 7.53547 139.806 7.0327 139.383C6.52256 138.959 6.18096 138.448 6.00749 137.851C5.82866 137.245 5.83687 136.569 6.03213 135.823C6.17471 135.278 6.38752 134.817 6.67057 134.438C6.94624 134.059 7.29057 133.754 7.70335 133.524L8.16842 133.945C7.75336 134.212 7.42822 134.502 7.19278 134.816C6.94996 135.129 6.76762 135.518 6.64576 135.983C6.40726 136.895 6.51334 137.661 6.96362 138.284C7.40672 138.906 8.145 139.352 9.17847 139.622C10.2119 139.892 11.0777 139.865 11.7757 139.542C12.4737 139.219 12.9418 138.602 13.1803 137.691C13.3021 137.225 13.3374 136.798 13.2859 136.408C13.2271 136.018 13.0822 135.605 12.8513 135.168L13.4628 135.029C13.7103 135.431 13.8639 135.87 13.9236 136.345C13.9779 136.812 13.9347 137.313 13.7939 137.851Z" fill="url(#paint36_linear_417_3755)"/>
<path d="M14.8848 133.518L14.3959 133.366L9.12682 126.614L9.42444 126.706L7.97588 131.379L7.39128 131.198L9.03407 125.898L9.51238 126.046L14.7782 132.81L14.4912 132.721L15.9792 127.92L16.5638 128.101L14.8848 133.518Z" fill="url(#paint37_linear_417_3755)"/>
<path d="M17.2694 125.989L9.88989 123.33L10.1239 122.681L13.5154 123.903L13.5229 123.882L11.4603 118.978L11.7736 118.11L14.0671 123.653L13.694 123.507L19.2626 120.466L18.9418 121.355L14.0044 124.056L13.9969 124.077L17.5035 125.34L17.2694 125.989Z" fill="url(#paint38_linear_417_3755)"/>
<path d="M19.9275 118.811L12.6282 115.939L12.881 115.297L20.1803 118.169L19.9275 118.811Z" fill="url(#paint39_linear_417_3755)"/>
<path d="M22.6347 112.195L15.5214 108.89L15.7747 108.345L23.8538 108.494L23.7177 108.786L18.4023 102.699L18.6509 102.165L25.7642 105.47L25.4968 106.045L19.12 103.082L19.2467 102.809L24.305 108.606L24.0939 109.059L16.3987 108.929L16.5254 108.657L22.9021 111.62L22.6347 112.195Z" fill="url(#paint40_linear_417_3755)"/>
<path d="M26.7046 103.583L21.3909 96.882L21.6842 96.3326L30.2398 96.9613L29.8994 97.599L27.4455 97.4L27.7446 97.194L25.4716 101.452L25.5024 101.04L27.045 102.946L26.7046 103.583ZM22.2687 97.0097L25.31 100.786L25.0717 100.949L27.1038 97.1422L27.1326 97.3718L22.2792 96.99L22.2687 97.0097Z" fill="url(#paint41_linear_417_3755)"/>
<path d="M32.2551 93.5474L23.7775 92.4578L24.1584 91.8174L32.0901 92.8673L31.9366 93.1254L27.234 86.6463L27.6035 86.025L32.6019 92.9643L32.2551 93.5474Z" fill="url(#paint42_linear_417_3755)"/>
<path d="M35.376 88.4444L28.8245 84.1327L31.5053 80.0655L31.9978 80.3896L29.6843 83.8997L32.1748 85.5388L34.3537 82.233L34.8462 82.5571L32.6673 85.8629L35.2507 87.5631L37.5643 84.053L38.0568 84.3772L35.376 88.4444Z" fill="url(#paint43_linear_417_3755)"/>
<path d="M39.4236 82.3778L33.0742 77.7741L34.8909 75.2723C35.3661 74.6179 35.887 74.2224 36.4546 74.0844C37.0222 73.9464 37.5852 74.0799 38.1436 74.4847C38.5039 74.7459 38.7543 75.0511 38.8948 75.4003C39.0294 75.7452 39.0611 76.1116 38.9901 76.4998C38.9131 76.8835 38.7373 77.2644 38.4629 77.6424L38.4879 77.3995L38.5794 77.2735C38.7582 77.0273 38.9774 76.8517 39.2366 76.7472C39.4902 76.6377 39.7995 76.6284 40.1643 76.7192L43.0113 77.4371L42.5669 78.0491L39.8582 77.349C39.4694 77.2408 39.1543 77.2645 38.9134 77.4195C38.6665 77.5702 38.4212 77.8133 38.1771 78.1495L37.0008 79.7694L39.8287 81.8199L39.4236 82.3778ZM36.5325 79.4299L37.8917 77.558C38.2624 77.0476 38.4323 76.58 38.4015 76.1554C38.3754 75.7243 38.1552 75.3586 37.7409 75.0582C37.3206 74.7535 36.9044 74.6578 36.4922 74.771C36.0787 74.8735 35.6866 75.18 35.3159 75.6904L33.9567 77.5623L36.5325 79.4299Z" fill="url(#paint44_linear_417_3755)"/>
<path d="M44.4462 75.6015L38.2513 70.7923L38.6745 70.2479L44.8695 75.0571L44.4462 75.6015Z" fill="url(#paint45_linear_417_3755)"/>
<path d="M48.8036 70.3372C48.3095 70.9296 47.7666 71.3315 47.175 71.5428C46.5823 71.7439 45.9651 71.7602 45.3229 71.5924C44.6807 71.4245 44.0407 71.0744 43.4025 70.5428C42.7643 70.0113 42.3074 69.4476 42.0322 68.8513C41.7513 68.2503 41.6591 67.6431 41.7561 67.029C41.8519 66.4048 42.147 65.7964 42.6411 65.204C43.0019 64.7715 43.3909 64.4441 43.8081 64.2219C44.2196 63.9949 44.6604 63.8658 45.1317 63.8334L45.3738 64.4115C44.8848 64.4767 44.4665 64.6019 44.12 64.7857C43.7678 64.9649 43.4372 65.2395 43.1283 65.6099C42.5252 66.3328 42.2946 67.0723 42.437 67.8278C42.5736 68.5786 43.0522 69.2957 43.8728 69.9791C44.6933 70.6626 45.4882 71.0063 46.2576 71.0102C47.0269 71.0141 47.7134 70.6543 48.3164 69.9314C48.6254 69.5611 48.8391 69.1891 48.9577 68.8154C49.0706 68.4369 49.1157 68.0009 49.0918 67.5085L49.7045 67.6424C49.7574 68.1115 49.71 68.5735 49.5618 69.029C49.4124 69.4743 49.1599 69.9102 48.8036 70.3372Z" fill="url(#paint46_linear_417_3755)"/>
<path d="M55.078 61.6844C54.8277 61.9485 54.534 62.1343 54.1958 62.2431C53.8523 62.3467 53.5062 62.3615 53.158 62.2868C52.8093 62.2127 52.5009 62.0476 52.2316 61.7927C51.9839 61.5582 51.8081 61.2748 51.7049 60.9418C51.6065 60.6036 51.5944 60.2607 51.6692 59.9124C51.7434 59.5538 51.9156 59.2321 52.1861 58.9467C52.436 58.6833 52.7302 58.5023 53.0688 58.4038C53.4014 58.3008 53.7394 58.2838 54.0828 58.3528C54.4304 58.4172 54.7449 58.5814 55.0249 58.8465C55.2888 59.0963 55.4672 59.3932 55.5606 59.7365C55.6589 60.0747 55.6656 60.418 55.5806 60.7663C55.5004 61.1095 55.3328 61.4157 55.078 61.6844Z" fill="url(#paint47_linear_417_3755)"/>
<path d="M63.216 54.9594L55.9412 50.9636L56.4777 50.479L63.2756 54.246L63.0032 54.492L60.0107 47.2876L60.4399 46.8999L67.2213 50.6818L66.9736 50.9055L63.948 43.7309L64.4598 43.2686L67.6817 50.9254L67.1946 51.3654L60.6128 47.688L60.7779 47.5388L63.6865 54.5343L63.216 54.9594Z" fill="url(#paint48_linear_417_3755)"/>
<path d="M68.6681 44.9231C68.151 44.2732 67.8154 43.6307 67.6606 42.996C67.5075 42.3506 67.5372 41.7398 67.7511 41.1626C67.9604 40.5795 68.3553 40.0574 68.9357 39.5962C69.5049 39.1439 70.0967 38.882 70.7123 38.8096C71.3289 38.7269 71.9343 38.833 72.5291 39.1275C73.1249 39.4117 73.6791 39.8758 74.1916 40.5198C74.7087 41.1696 75.041 41.8195 75.1886 42.4694C75.3361 43.1193 75.3024 43.738 75.0875 44.3254C74.8783 44.9084 74.4921 45.4236 73.9291 45.871C73.3543 46.3277 72.7594 46.5921 72.1438 46.6646C71.5282 46.737 70.9236 46.6255 70.3288 46.331C69.7339 46.0366 69.1806 45.5671 68.6681 44.9231ZM69.2429 44.4663C69.9078 45.3018 70.6132 45.8067 71.3586 45.9815C72.0993 46.1506 72.8271 45.9511 73.5413 45.3836C74.2324 44.8344 74.5877 44.1733 74.6072 43.4002C74.622 42.6213 74.2973 41.8138 73.6324 40.9784C72.9629 40.1371 72.2511 39.642 71.4975 39.4926C70.745 39.333 70.0203 39.5299 69.3235 40.0836C68.6094 40.6511 68.251 41.3147 68.249 42.0739C68.2423 42.8274 68.5734 43.625 69.2429 44.4663Z" fill="url(#paint49_linear_417_3755)"/>
<path d="M78.6718 42.089L74.1163 35.7072L76.6347 33.9122C77.2928 33.4431 77.9132 33.2331 78.4952 33.2826C79.0773 33.3321 79.5686 33.6375 79.9692 34.1987C80.2277 34.5608 80.368 34.9297 80.3902 35.3054C80.4081 35.6751 80.3216 36.0327 80.1308 36.3781C79.9357 36.7175 79.6479 37.0228 79.2674 37.294L79.3684 37.0717L79.4953 36.9813C79.7431 36.8047 80.0062 36.7082 80.2858 36.691C80.5611 36.6678 80.8573 36.7571 81.1743 36.9591L83.6452 38.5442L83.0292 38.9832L80.6837 37.459C80.3495 37.2329 80.0432 37.1553 79.7654 37.2258C79.4834 37.2902 79.1735 37.4428 78.8351 37.684L77.2045 38.8463L79.2335 41.6886L78.6718 42.089ZM76.8685 38.3755L78.7527 37.0325C79.2659 36.6668 79.5757 36.2775 79.6823 35.8646C79.7947 35.4477 79.7022 35.031 79.405 34.6146C79.1034 34.1921 78.7393 33.9691 78.3124 33.9456C77.8871 33.9119 77.4178 34.0779 76.9047 34.4436L75.0205 35.7866L76.8685 38.3755Z" fill="url(#paint50_linear_417_3755)"/>
<path d="M85.5825 37.2445L81.3177 30.6652L85.4083 28.0175L85.7289 28.5121L82.1987 30.7971L83.8199 33.2981L87.1447 31.1462L87.4653 31.6408L84.1405 33.7928L85.8223 36.3872L89.3525 34.1022L89.6731 34.5968L85.5825 37.2445Z" fill="url(#paint51_linear_417_3755)"/>
<path d="M94.5842 31.7478C93.9194 32.138 93.2725 32.3328 92.6436 32.3323C92.0177 32.3213 91.4313 32.1282 90.8837 31.7532C90.3368 31.3779 89.8522 30.8327 89.4315 30.1168C89.0107 29.401 88.772 28.7157 88.7141 28.062C88.6531 27.4015 88.7717 26.7989 89.0707 26.2537C89.3728 25.6982 89.8562 25.2253 90.521 24.8351C91.0076 24.5495 91.4844 24.3728 91.9515 24.305C92.4156 24.2304 92.8748 24.2574 93.3287 24.3865L93.361 25.0123C92.8787 24.9085 92.4434 24.8846 92.0544 24.941C91.6623 24.9906 91.2583 25.1375 90.8423 25.3816C90.0301 25.8583 89.5629 26.4763 89.4413 27.2355C89.3159 27.9882 89.5237 28.8248 90.0647 29.7452C90.6057 30.6656 91.2376 31.2576 91.9603 31.5211C92.6831 31.7847 93.4508 31.6779 94.263 31.2013C94.679 30.9571 95.006 30.6793 95.244 30.3676C95.479 30.0492 95.6682 29.6544 95.8124 29.1829L96.3436 29.5159C96.2355 29.9748 96.0339 30.394 95.7402 30.7727C95.4497 31.141 95.0639 31.4662 94.5842 31.7478Z" fill="url(#paint52_linear_417_3755)"/>
<path d="M98.4149 29.451L98.1756 28.9988L99.2162 20.4996L99.3618 20.7748L95.0337 23.062L94.7476 22.5214L99.6561 19.9275L99.8902 20.3699L98.8398 28.8743L98.6993 28.6089L103.145 26.2594L103.432 26.8L98.4149 29.451Z" fill="url(#paint53_linear_417_3755)"/>
<path d="M105.42 25.8045L102.074 18.7143L102.698 18.4203L104.235 21.6788L104.255 21.6693L106.261 16.7415L107.096 16.3479L104.803 21.8908L104.642 21.524L110.734 23.3006L109.878 23.7037L104.474 22.1319L104.454 22.1414L106.043 25.5105L105.42 25.8045Z" fill="url(#paint54_linear_417_3755)"/>
<path d="M112.387 22.5919L109.25 15.4074L109.882 15.1316L113.02 22.3161L112.387 22.5919Z" fill="url(#paint55_linear_417_3755)"/>
<path d="M118.974 19.8208L116.275 12.4606L116.839 12.2539L122.453 18.0613L122.15 18.1723L122.69 10.1114L123.244 9.90863L125.943 17.2689L125.347 17.487L122.928 10.8888L123.21 10.7855L122.694 18.4588L122.224 18.6309L116.868 13.1079L117.15 13.0046L119.57 19.6027L118.974 19.8208Z" fill="url(#paint56_linear_417_3755)"/>
<path d="M127.937 16.5988L128.913 8.1046L129.509 7.92271L135.12 14.4064L134.429 14.6175L132.832 12.7446L133.19 12.8099L128.571 14.2196L128.884 13.9496L128.629 16.3876L127.937 16.5988ZM129.444 8.81446L128.927 13.6341L128.644 13.5812L132.773 12.321L132.631 12.5038L129.465 8.80796L129.444 8.81446Z" fill="url(#paint57_linear_417_3755)"/>
<path d="M138.973 13.4093L133.743 6.6536L134.465 6.46922L139.337 12.8114L139.046 12.8857L140.298 4.98039L140.999 4.80151L139.63 13.2414L138.973 13.4093Z" fill="url(#paint58_linear_417_3755)"/>
<path d="M144.785 12.0018L143.197 4.32519L147.97 3.33919L148.089 3.9163L143.97 4.76722L144.574 7.68542L148.453 6.88401L148.573 7.46112L144.693 8.26252L145.32 11.2896L149.439 10.4387L149.558 11.0158L144.785 12.0018Z" fill="url(#paint59_linear_417_3755)"/>
<path d="M151.935 10.5664L150.696 2.82579L153.751 2.3378C154.549 2.21029 155.198 2.29802 155.697 2.60111C156.197 2.9042 156.501 3.39612 156.61 4.07685C156.68 4.51604 156.641 4.9088 156.494 5.25515C156.345 5.59417 156.109 5.87595 155.784 6.10048C155.458 6.31768 155.064 6.46314 154.603 6.53687L154.792 6.38274L154.946 6.35817C155.247 6.31015 155.525 6.34071 155.783 6.44962C156.04 6.5512 156.266 6.76291 156.46 7.08475L157.967 9.60273L157.22 9.7221L155.798 7.31436C155.599 6.96325 155.359 6.75758 155.079 6.69723C154.798 6.62956 154.453 6.62845 154.042 6.69403L152.064 7.00998L152.616 10.4576L151.935 10.5664ZM151.973 6.43904L154.258 6.07393C154.881 5.97451 155.332 5.76361 155.611 5.44125C155.897 5.11776 156 4.70348 155.919 4.19842C155.837 3.68604 155.61 3.32442 155.238 3.11357C154.873 2.89428 154.378 2.83433 153.756 2.93376L151.471 3.29887L151.973 6.43904Z" fill="url(#paint60_linear_417_3755)"/>
<path d="M160.295 9.3151L159.312 1.53792L159.996 1.45156L160.979 9.22874L160.295 9.3151Z" fill="url(#paint61_linear_417_3755)"/>
<path d="M167.098 8.66718C166.329 8.73739 165.661 8.63841 165.093 8.37024C164.531 8.09403 164.082 7.66983 163.747 7.0975C163.412 6.52523 163.206 5.82568 163.131 4.9989C163.055 4.17213 163.13 3.45067 163.357 2.83444C163.583 2.21091 163.948 1.71606 164.451 1.35004C164.96 0.97599 165.599 0.753858 166.367 0.68364C166.928 0.632369 167.435 0.675393 167.888 0.812714C168.338 0.942725 168.742 1.16262 169.099 1.47246L168.861 2.05243C168.468 1.75336 168.085 1.5465 167.71 1.43191C167.333 1.31001 166.905 1.27097 166.425 1.31479C165.486 1.40056 164.801 1.76091 164.367 2.39602C163.933 3.02373 163.765 3.86909 163.862 4.93208C163.959 5.99508 164.279 6.79958 164.82 7.34559C165.362 7.8916 166.101 8.12179 167.04 8.03602C167.52 7.9922 167.934 7.87991 168.283 7.69915C168.631 7.51108 168.97 7.23443 169.302 6.86913L169.641 7.39645C169.347 7.76573 168.986 8.05917 168.559 8.27684C168.139 8.48649 167.652 8.61656 167.098 8.66718Z" fill="url(#paint62_linear_417_3755)"/>
<path d="M177.651 6.9757C177.288 6.98573 176.948 6.90984 176.632 6.74801C176.316 6.57878 176.061 6.34481 175.867 6.04613C175.673 5.74744 175.571 5.41286 175.561 5.04236C175.551 4.70151 175.628 4.37681 175.79 4.06831C175.959 3.75959 176.194 3.50839 176.492 3.31477C176.799 3.11351 177.149 3.00744 177.541 2.9966C177.905 2.98656 178.241 3.06626 178.55 3.23572C178.859 3.39774 179.11 3.6244 179.303 3.91568C179.504 4.20674 179.61 4.54494 179.621 4.93025C179.631 5.29334 179.548 5.62932 179.37 5.93827C179.201 6.24699 178.963 6.49456 178.656 6.681C178.357 6.86722 178.022 6.96546 177.651 6.9757Z" fill="url(#paint63_linear_417_3755)"/>
<path d="M188.16 7.96436L185.839 0L186.561 0.0360038L188.706 7.50176L188.34 7.48348L191.318 0.273082L191.896 0.301887L194.019 7.76653L193.685 7.74992L196.619 0.537304L197.308 0.571646L194.172 8.26403L193.516 8.23135L191.461 0.981576L191.683 0.992655L188.793 7.99593L188.16 7.96436Z" fill="url(#paint64_linear_417_3755)"/>
<path d="M199.112 4.71374C199.205 3.88882 199.422 3.19716 199.762 2.63894C200.109 2.07408 200.563 1.66304 201.123 1.40576C201.682 1.14101 202.331 1.05049 203.069 1.13421C203.79 1.21612 204.395 1.44888 204.882 1.83238C205.377 2.20931 205.73 2.71194 205.942 3.34035C206.163 3.96221 206.227 4.68191 206.134 5.49946C206.04 6.32438 205.815 7.01883 205.46 7.58279C205.105 8.14676 204.643 8.56067 204.076 8.82452C203.516 9.08918 202.878 9.18094 202.163 9.09983C201.433 9.01702 200.825 8.78383 200.339 8.40042C199.852 8.01692 199.503 7.51096 199.291 6.88264C199.078 6.25423 199.019 5.53129 199.112 4.71374ZM199.841 4.79655C199.721 5.85716 199.862 6.71247 200.266 7.36266C200.671 8.0054 201.327 8.37825 202.234 8.48114C203.11 8.58063 203.829 8.36381 204.39 7.83069C204.952 7.29011 205.293 6.48956 205.414 5.42895C205.535 4.36098 205.382 3.508 204.954 2.87012C204.535 2.22568 203.883 1.85328 202.998 1.7529C202.092 1.65001 201.369 1.86638 200.83 2.4021C200.292 2.93036 199.963 3.72858 199.841 4.79655Z" fill="url(#paint65_linear_417_3755)"/>
<path d="M208.208 9.77593L209.5 2.04402L212.551 2.55305C213.348 2.68606 213.936 2.9757 214.312 3.42183C214.689 3.86796 214.821 4.43101 214.707 5.11098C214.634 5.54967 214.472 5.90973 214.222 6.19116C213.973 6.46529 213.659 6.65713 213.28 6.76671C212.902 6.86896 212.482 6.88164 212.021 6.80474L212.25 6.71889L212.404 6.74453C212.703 6.79449 212.958 6.9122 213.168 7.09753C213.379 7.27543 213.525 7.54783 213.607 7.91476L214.234 10.7812L213.487 10.6567L212.906 7.92187C212.829 7.5257 212.668 7.2546 212.422 7.10829C212.177 6.95467 211.849 6.8436 211.44 6.77533L209.464 6.44574L208.889 9.88945L208.208 9.77593ZM209.559 5.87544L211.842 6.2563C212.464 6.36001 212.958 6.30349 213.326 6.08672C213.7 5.87113 213.93 5.51108 214.014 5.00659C214.099 4.49479 213.999 4.07981 213.714 3.76166C213.437 3.43739 212.988 3.22338 212.366 3.11966L210.083 2.73881L209.559 5.87544Z" fill="url(#paint66_linear_417_3755)"/>
<path d="M216.522 11.2299L218.159 3.56358L222.925 4.58008L222.802 5.15641L218.689 4.27916L218.066 7.19344L221.94 8.01963L221.817 8.59596L217.943 7.76977L217.298 10.7928L221.411 11.67L221.288 12.2464L216.522 11.2299Z" fill="url(#paint67_linear_417_3755)"/>
<path d="M226.776 13.6996C226.03 13.5061 225.434 13.1869 224.99 12.7423C224.555 12.2925 224.277 11.7417 224.154 11.0897C224.033 10.4379 224.076 9.71 224.285 8.90641C224.494 8.10283 224.809 7.44956 225.231 6.94622C225.655 6.4359 226.165 6.09343 226.762 5.91902C227.369 5.73943 228.045 5.74643 228.792 5.94001C229.338 6.0817 229.8 6.29353 230.179 6.57549C230.56 6.85048 230.865 7.19401 231.095 7.60587L230.675 8.07134C230.408 7.65727 230.117 7.33288 229.801 7.09798C229.489 6.85611 229.099 6.6746 228.632 6.55346C227.721 6.31698 226.953 6.42415 226.33 6.87521C225.709 7.31909 225.264 8.05763 224.996 9.09081C224.727 10.124 224.755 10.989 225.08 11.686C225.405 12.3829 226.024 12.8497 226.935 13.0862C227.402 13.2073 227.83 13.2417 228.219 13.1894C228.61 13.1302 229.023 12.9846 229.459 12.7529L229.599 13.3637C229.198 13.6119 228.759 13.766 228.283 13.8265C227.817 13.8818 227.314 13.8393 226.776 13.6996Z" fill="url(#paint68_linear_417_3755)"/>
<path d="M231.109 14.7806L231.26 14.2917L238.008 9.0149L237.917 9.31245L233.237 7.87307L233.417 7.28859L238.724 8.92098L238.577 9.39919L231.818 14.6727L231.906 14.3858L236.713 15.8645L236.533 16.4489L231.109 14.7806Z" fill="url(#paint69_linear_417_3755)"/>
<path d="M238.643 17.1488L241.292 9.77029L241.941 10.0031L240.724 13.394L240.745 13.4016L245.649 11.3323L246.518 11.6439L240.975 13.9449L241.121 13.5719L244.173 19.1313L243.283 18.8121L240.572 13.883L240.551 13.8755L239.292 17.3816L238.643 17.1488Z" fill="url(#paint70_linear_417_3755)"/>
<path d="M245.844 19.7981L248.707 12.4999L249.349 12.7515L246.486 20.0497L245.844 19.7981Z" fill="url(#paint71_linear_417_3755)"/>
<path d="M252.463 22.4908L255.761 15.378L256.306 15.6304L256.169 23.7036L255.876 23.5681L261.96 18.2477L262.495 18.4954L259.198 25.6082L258.622 25.3418L261.578 18.9655L261.851 19.0917L256.058 24.1547L255.603 23.9444L255.722 16.2547L255.995 16.3809L253.039 22.7572L252.463 22.4908Z" fill="url(#paint72_linear_417_3755)"/>
<path d="M261.083 26.5432L267.782 21.224L268.332 21.5163L267.715 30.0664L267.076 29.7271L267.272 27.2747L267.479 27.5734L263.215 25.3081L263.627 25.3383L261.722 26.8824L261.083 26.5432ZM267.655 22.1012L263.881 25.1457L263.717 24.9078L267.529 26.933L267.3 26.9621L267.675 22.1117L267.655 22.1012Z" fill="url(#paint73_linear_417_3755)"/>
<path d="M271.146 32.0826L272.226 23.6099L272.867 23.9897L271.827 31.9168L271.568 31.7637L278.046 27.0564L278.668 27.4249L271.73 32.4284L271.146 32.0826Z" fill="url(#paint74_linear_417_3755)"/>
<path d="M276.254 35.1932L280.561 28.6413L284.635 31.3151L284.311 31.8076L280.795 29.5002L279.158 31.9908L282.469 34.164L282.145 34.6566L278.835 32.4834L277.136 35.067L280.652 37.3744L280.328 37.867L276.254 35.1932Z" fill="url(#paint75_linear_417_3755)"/>
<path d="M282.329 39.229L286.928 32.8787L289.434 34.691C290.089 35.1646 290.486 35.6851 290.625 36.2522C290.763 36.8192 290.63 37.3819 290.226 37.9404C289.965 38.3007 289.66 38.5513 289.311 38.6921C288.966 38.827 288.599 38.8592 288.211 38.7887C287.826 38.7122 287.445 38.537 287.066 38.2632L287.309 38.288L287.436 38.3793C287.682 38.5576 287.858 38.776 287.963 39.0353C288.073 39.2886 288.083 39.5976 287.992 39.9623L287.277 42.808L286.664 42.3647L287.362 39.6572C287.47 39.2685 287.445 38.9537 287.29 38.7131C287.139 38.4666 286.895 38.2218 286.559 37.9783L284.936 36.8048L282.887 39.6332L282.329 39.229ZM285.275 36.3364L287.15 37.6924C287.661 38.0617 288.129 38.2309 288.554 38.2001C288.986 38.1735 289.352 37.953 289.652 37.5387C289.956 37.1183 290.051 36.7023 289.938 36.2905C289.834 35.877 289.527 35.4855 289.016 35.1163L287.141 33.7603L285.275 36.3364Z" fill="url(#paint76_linear_417_3755)"/>
<path d="M289.115 44.2389L293.92 38.0428L294.466 38.4651L289.66 44.6612L289.115 44.2389Z" fill="url(#paint77_linear_417_3755)"/>
<path d="M294.388 48.5862C293.794 48.0931 293.391 47.5511 293.179 46.9602C292.977 46.3682 292.96 45.751 293.127 45.1095C293.295 44.4676 293.644 43.8277 294.175 43.1894C294.707 42.551 295.27 42.0938 295.867 41.8181C296.467 41.5362 297.075 41.4438 297.69 41.54C298.315 41.635 298.924 41.9291 299.517 42.4222C299.951 42.7822 300.279 43.1705 300.501 43.5871C300.729 43.9975 300.859 44.4384 300.892 44.9093L300.314 45.1519C300.247 44.6628 300.122 44.2455 299.938 43.8995C299.757 43.5472 299.482 43.2172 299.112 42.9095C298.387 42.3072 297.647 42.0782 296.891 42.2213C296.14 42.3588 295.423 42.8378 294.74 43.6586C294.057 44.4793 293.714 45.2741 293.711 46.0428C293.708 46.8116 294.068 47.4966 294.793 48.0989C295.163 48.4066 295.536 48.6198 295.911 48.7384C296.29 48.8507 296.725 48.8947 297.219 48.8708L297.085 49.4832C296.616 49.5366 296.154 49.4898 295.698 49.3422C295.252 49.1935 294.815 48.9417 294.388 48.5862Z" fill="url(#paint78_linear_417_3755)"/>
<path d="M303.053 54.845C302.789 54.5957 302.603 54.3019 302.493 53.9641C302.389 53.621 302.375 53.2757 302.448 52.9272C302.523 52.5792 302.687 52.2702 302.942 52.0009C303.176 51.753 303.46 51.5776 303.793 51.4735C304.131 51.3748 304.475 51.3629 304.823 51.4366C305.182 51.5104 305.504 51.6826 305.79 51.9521C306.054 52.2019 306.236 52.4957 306.334 52.8334C306.438 53.1663 306.456 53.504 306.386 53.8466C306.323 54.1946 306.158 54.5085 305.893 54.7886C305.644 55.0526 305.347 55.2317 305.003 55.3249C304.665 55.4236 304.321 55.4306 303.973 55.3461C303.63 55.267 303.323 55.0998 303.053 54.845Z" fill="url(#paint79_linear_417_3755)"/>
<path d="M309.793 62.9692L313.783 55.6952L314.269 56.2308L310.507 63.028L310.26 62.7561L317.467 59.7573L317.855 60.1857L314.079 66.9665L313.854 66.7193L321.031 63.6876L321.494 64.1984L313.835 67.4269L313.394 66.9407L317.067 60.3595L317.216 60.5243L310.219 63.4389L309.793 62.9692Z" fill="url(#paint80_linear_417_3755)"/>
<path d="M319.844 68.4065C320.494 67.889 321.136 67.5523 321.772 67.3975C322.417 67.2431 323.029 67.2727 323.606 67.4858C324.19 67.6936 324.713 68.0875 325.175 68.6676C325.628 69.2352 325.891 69.8269 325.965 70.4419C326.048 71.058 325.943 71.663 325.649 72.2578C325.365 72.8535 324.901 73.4078 324.257 73.9206C323.608 74.4381 322.958 74.771 322.307 74.9192C321.657 75.0674 321.038 75.0345 320.45 74.8205C319.866 74.612 319.35 74.2268 318.902 73.6648C318.444 73.0909 318.178 72.4961 318.106 71.8817C318.032 71.2666 318.143 70.6618 318.437 70.0676C318.731 69.4729 319.2 68.9194 319.844 68.4065ZM320.302 68.9804C319.467 69.6457 318.962 70.3506 318.788 71.0963C318.62 71.8367 318.82 72.5637 319.389 73.2766C319.939 73.966 320.601 74.3202 321.375 74.3394C322.155 74.3532 322.962 74.0278 323.798 73.3624C324.639 72.6925 325.134 71.9806 325.282 71.2274C325.441 70.4752 325.243 69.7513 324.688 69.0557C324.119 68.3428 323.455 67.9854 322.695 67.9843C321.94 67.978 321.143 68.3104 320.302 68.9804Z" fill="url(#paint81_linear_417_3755)"/>
<path d="M322.694 78.4011L329.075 73.8412L330.874 76.3556C331.344 77.0126 331.555 77.6322 331.506 78.2139C331.457 78.7956 331.152 79.2869 330.591 79.688C330.229 79.9467 329.86 80.0873 329.484 80.11C329.114 80.1283 328.756 80.0423 328.41 79.8521C328.071 79.6575 327.765 79.3703 327.493 78.9904L327.715 79.0911L327.806 79.2177C327.983 79.4645 328.08 79.7279 328.098 80.0073C328.121 80.2818 328.032 80.5778 327.83 80.8955L326.247 83.3664L325.807 82.7514L327.329 80.4059C327.555 80.071 327.633 79.7654 327.562 79.488C327.497 79.2063 327.343 78.8961 327.102 78.5589L325.937 76.9309L323.095 78.9619L322.694 78.4011ZM326.408 76.5946L327.754 78.4758C328.121 78.9881 328.51 79.2972 328.924 79.4032C329.341 79.515 329.758 79.4221 330.174 79.1246C330.597 78.8228 330.82 78.4586 330.843 78.032C330.876 77.607 330.709 77.1383 330.342 76.626L328.996 74.7448L326.408 76.5946Z" fill="url(#paint82_linear_417_3755)"/>
<path d="M327.551 85.3026L334.13 81.0328L336.785 85.117L336.29 85.438L333.999 81.9132L331.498 83.5364L333.656 86.856L333.162 87.177L331.004 83.8574L328.41 85.5411L330.701 89.0658L330.206 89.3868L327.551 85.3026Z" fill="url(#paint83_linear_417_3755)"/>
<path d="M333.065 94.2931C332.673 93.6286 332.478 92.9825 332.478 92.3547C332.488 91.7293 332.68 91.143 333.055 90.5954C333.429 90.0477 333.975 89.5635 334.691 89.1421C335.406 88.7207 336.091 88.4807 336.746 88.4226C337.407 88.3608 338.01 88.4786 338.556 88.7767C339.112 89.0772 339.586 89.5596 339.978 90.2241C340.264 90.7093 340.441 91.1856 340.51 91.6529C340.585 92.1165 340.558 92.5748 340.43 93.0291L339.804 93.0622C339.907 92.5801 339.93 92.1444 339.874 91.7565C339.823 91.3647 339.676 90.9612 339.431 90.5458C338.953 89.7349 338.334 89.2688 337.574 89.1483C336.821 89.0239 335.984 89.2327 335.063 89.7744C334.143 90.3162 333.551 90.9484 333.289 91.6709C333.026 92.3934 333.133 93.1605 333.611 93.9714C333.856 94.3867 334.135 94.7132 334.447 94.9507C334.766 95.1844 335.161 95.3737 335.633 95.5171L335.301 96.0484C334.841 95.9402 334.422 95.74 334.042 95.4471C333.673 95.1565 333.347 94.7721 333.065 94.2931Z" fill="url(#paint84_linear_417_3755)"/>
<path d="M335.37 98.121L335.822 97.8813L344.329 98.9099L344.054 99.0558L341.759 94.734L342.3 94.4474L344.902 99.3487L344.46 99.5832L335.948 98.5448L336.213 98.4041L338.57 102.844L338.03 103.13L335.37 98.121Z" fill="url(#paint85_linear_417_3755)"/>
<path d="M339.03 105.119L346.121 101.766L346.416 102.389L343.158 103.93L343.167 103.95L348.101 105.947L348.496 106.781L342.946 104.498L343.313 104.336L341.543 110.426L341.139 109.571L342.704 104.169L342.695 104.149L339.325 105.742L339.03 105.119Z" fill="url(#paint86_linear_417_3755)"/>
<path d="M342.249 112.064L349.434 108.918L349.711 109.549L342.526 112.695L342.249 112.064Z" fill="url(#paint87_linear_417_3755)"/>
<path d="M345.034 118.648L352.396 115.939L352.603 116.502L346.8 122.121L346.689 121.819L354.757 122.345L354.96 122.898L347.599 125.607L347.38 125.012L353.979 122.584L354.083 122.866L346.403 122.362L346.23 121.893L351.749 116.532L351.853 116.814L345.253 119.242L345.034 118.648Z" fill="url(#paint88_linear_417_3755)"/>
<path d="M348.275 127.605L356.777 128.566L356.96 129.161L350.481 134.779L350.268 134.088L352.14 132.49L352.075 132.847L350.657 128.234L350.927 128.547L348.487 128.295L348.275 127.605ZM356.067 129.097L351.243 128.589L351.296 128.306L352.564 132.43L352.38 132.288L356.074 129.119L356.067 129.097Z" fill="url(#paint89_linear_417_3755)"/>
<path d="M351.482 138.615L358.233 133.377L358.419 134.099L352.081 138.978L352.006 138.687L359.92 139.924L360.1 140.624L351.651 139.272L351.482 138.615Z" fill="url(#paint90_linear_417_3755)"/>
<path d="M352.902 144.427L360.582 142.825L361.577 147.593L361 147.713L360.141 143.599L357.222 144.207L358.031 148.082L357.454 148.203L356.644 144.328L353.616 144.959L354.475 149.074L353.898 149.194L352.902 144.427Z" fill="url(#paint91_linear_417_3755)"/>
<path d="M354.353 151.574L362.097 150.321L362.592 153.373C362.721 154.17 362.634 154.819 362.332 155.318C362.03 155.818 361.538 156.123 360.857 156.233C360.418 156.304 360.024 156.266 359.677 156.119C359.338 155.972 359.055 155.736 358.83 155.412C358.612 155.087 358.466 154.694 358.391 154.232L358.546 154.422L358.571 154.575C358.619 154.875 358.589 155.154 358.481 155.412C358.379 155.668 358.168 155.894 357.846 156.089L355.33 157.6L355.209 156.854L357.615 155.428C357.966 155.228 358.172 154.989 358.232 154.709C358.299 154.428 358.299 154.082 358.233 153.672L357.913 151.697L354.464 152.255L354.353 151.574ZM358.484 151.604L358.854 153.887C358.954 154.509 359.166 154.959 359.49 155.238C359.814 155.523 360.229 155.625 360.734 155.543C361.246 155.46 361.608 155.233 361.818 154.861C362.037 154.495 362.096 154.001 361.995 153.379L361.625 151.096L358.484 151.604Z" fill="url(#paint92_linear_417_3755)"/>
<path d="M355.62 159.912L363.401 158.914L363.489 159.599L355.708 160.597L355.62 159.912Z" fill="url(#paint93_linear_417_3755)"/>
<path d="M356.284 166.715C356.212 165.948 356.309 165.277 356.577 164.709C356.852 164.149 357.276 163.702 357.847 163.362C358.42 163.029 359.119 162.82 359.946 162.743C360.774 162.665 361.496 162.741 362.113 162.963C362.738 163.192 363.233 163.552 363.601 164.052C363.976 164.56 364.2 165.201 364.272 165.968C364.324 166.529 364.282 167.036 364.146 167.487C364.017 167.938 363.797 168.341 363.488 168.697L362.907 168.465C363.206 168.07 363.412 167.683 363.526 167.314C363.647 166.936 363.685 166.509 363.64 166.027C363.553 165.094 363.191 164.41 362.554 163.975C361.924 163.539 361.079 163.379 360.015 163.478C358.952 163.578 358.147 163.892 357.602 164.438C357.057 164.983 356.828 165.723 356.915 166.656C356.96 167.138 357.074 167.55 357.255 167.9C357.444 168.242 357.722 168.583 358.088 168.915L357.561 169.252C357.191 168.959 356.897 168.604 356.678 168.178C356.467 167.759 356.336 167.268 356.284 166.715Z" fill="url(#paint94_linear_417_3755)"/>
<path d="M358 177.263C357.989 176.898 358.065 176.562 358.226 176.248C358.394 175.925 358.628 175.671 358.926 175.48C359.225 175.28 359.56 175.183 359.93 175.172C360.271 175.161 360.597 175.239 360.906 175.397C361.215 175.562 361.467 175.801 361.661 176.097C361.863 176.401 361.97 176.755 361.982 177.144C361.993 177.51 361.914 177.846 361.745 178.153C361.583 178.459 361.357 178.713 361.066 178.904C360.775 179.111 360.437 179.217 360.052 179.228C359.688 179.239 359.352 179.154 359.042 178.98C358.733 178.807 358.485 178.576 358.297 178.264C358.11 177.967 358.011 177.637 358 177.263Z" fill="url(#paint95_linear_417_3755)"/>
<path d="M357.035 187.761L365 185.419L364.966 186.141L357.5 188.3L357.517 187.935L364.74 190.893L364.713 191.472L357.248 193.615L357.264 193.282L364.489 196.193L364.456 196.883L356.751 193.767L356.782 193.108L364.032 191.042L364.021 191.265L357.006 188.388L357.035 187.761Z" fill="url(#paint96_linear_417_3755)"/>
<path d="M360.315 198.703C361.141 198.795 361.834 199.007 362.393 199.349C362.96 199.691 363.372 200.145 363.631 200.701C363.898 201.258 363.99 201.907 363.908 202.649C363.828 203.368 363.596 203.973 363.214 204.458C362.838 204.952 362.336 205.312 361.708 205.522C361.086 205.749 360.366 205.813 359.547 205.722C358.721 205.63 358.026 205.409 357.461 205.051C356.895 204.701 356.48 204.239 356.214 203.674C355.949 203.109 355.855 202.476 355.934 201.765C356.015 201.031 356.247 200.425 356.629 199.94C357.012 199.448 357.518 199.096 358.145 198.886C358.774 198.668 359.497 198.612 360.315 198.703ZM360.235 199.429C359.173 199.312 358.317 199.456 357.667 199.864C357.026 200.264 356.654 200.926 356.553 201.834C356.456 202.71 356.675 203.422 357.21 203.984C357.753 204.54 358.554 204.885 359.616 205.002C360.685 205.121 361.539 204.96 362.176 204.535C362.82 204.111 363.19 203.465 363.288 202.581C363.389 201.673 363.171 200.945 362.633 200.414C362.103 199.876 361.304 199.548 360.235 199.429Z" fill="url(#paint97_linear_417_3755)"/>
<path d="M355.275 207.794L363.016 209.064L362.514 212.12C362.384 212.912 362.096 213.5 361.65 213.878C361.205 214.256 360.642 214.389 359.961 214.277C359.522 214.205 359.16 214.049 358.879 213.794C358.604 213.547 358.411 213.234 358.3 212.854C358.196 212.483 358.182 212.062 358.258 211.599L358.344 211.831L358.32 211.98C358.27 212.285 358.153 212.54 357.969 212.743C357.791 212.955 357.519 213.104 357.152 213.189L354.285 213.821L354.407 213.077L357.143 212.487C357.539 212.407 357.809 212.25 357.956 212C358.109 211.752 358.218 211.432 358.286 211.016L358.611 209.041L355.163 208.476L355.275 207.794ZM359.182 209.135L358.807 211.416C358.704 212.043 358.762 212.535 358.981 212.901C359.197 213.275 359.558 213.503 360.063 213.586C360.576 213.67 360.991 213.569 361.308 213.283C361.632 213.006 361.845 212.558 361.948 211.931L362.322 209.65L359.182 209.135Z" fill="url(#paint98_linear_417_3755)"/>
<path d="M353.842 216.11L361.519 217.724L360.514 222.496L359.937 222.375L360.804 218.256L357.886 217.642L357.069 221.52L356.492 221.399L357.309 217.521L354.282 216.884L353.415 221.003L352.837 220.882L353.842 216.11Z" fill="url(#paint99_linear_417_3755)"/>
<path d="M351.403 226.356C351.594 225.61 351.912 225.011 352.356 224.567C352.804 224.132 353.356 223.847 354.007 223.727C354.66 223.599 355.387 223.646 356.192 223.852C356.997 224.059 357.653 224.366 358.157 224.79C358.67 225.209 359.013 225.723 359.189 226.318C359.371 226.922 359.365 227.601 359.174 228.347C359.034 228.893 358.823 229.356 358.542 229.735C358.268 230.116 357.926 230.421 357.514 230.652L357.048 230.229C357.461 229.966 357.785 229.672 358.019 229.355C358.261 229.04 358.441 228.651 358.56 228.19C358.794 227.274 358.685 226.508 358.232 225.884C357.785 225.269 357.045 224.825 356.01 224.56C354.975 224.295 354.109 224.327 353.414 224.649C352.717 224.979 352.252 225.598 352.017 226.513C351.898 226.975 351.866 227.401 351.919 227.792C351.979 228.184 352.125 228.599 352.36 229.028L351.748 229.175C351.498 228.775 351.343 228.333 351.281 227.858C351.225 227.393 351.264 226.895 351.403 226.356Z" fill="url(#paint100_linear_417_3755)"/>
<path d="M350.333 230.694L350.822 230.843L356.124 237.57L355.826 237.479L357.252 232.799L357.837 232.977L356.221 238.281L355.742 238.135L350.443 231.4L350.731 231.488L349.265 236.297L348.68 236.119L350.333 230.694Z" fill="url(#paint101_linear_417_3755)"/>
<path d="M347.985 238.231L355.377 240.855L355.146 241.506L351.749 240.3L351.741 240.323L353.826 245.218L353.518 246.087L351.199 240.552L351.571 240.701L346.016 243.769L346.333 242.879L351.258 240.152L351.266 240.129L347.754 238.882L347.985 238.231Z" fill="url(#paint102_linear_417_3755)"/>
<path d="M345.361 245.424L352.674 248.261L352.424 248.905L345.111 246.068L345.361 245.424Z" fill="url(#paint103_linear_417_3755)"/>
<path d="M342.686 252.053L349.815 255.324L349.563 255.873L341.485 255.758L341.618 255.47L346.962 261.531L346.717 262.065L339.588 258.794L339.853 258.217L346.244 261.149L346.118 261.424L341.034 255.647L341.243 255.193L348.937 255.289L348.811 255.563L342.42 252.63L342.686 252.053Z" fill="url(#paint104_linear_417_3755)"/>
<path d="M338.657 260.685L344.006 267.355L343.713 267.91L335.154 267.324L335.491 266.685L337.949 266.866L337.649 267.076L339.903 262.805L339.873 263.22L338.319 261.324L338.657 260.685ZM343.127 267.233L340.066 263.474L340.302 263.312L338.289 267.127L338.26 266.896L343.115 267.254L343.127 267.233Z" fill="url(#paint105_linear_417_3755)"/>
<path d="M333.154 270.748L341.637 271.797L341.258 272.441L333.323 271.427L333.476 271.167L338.209 277.624L337.843 278.247L332.808 271.337L333.154 270.748Z" fill="url(#paint106_linear_417_3755)"/>
<path d="M330.049 275.881L336.62 280.162L333.96 284.24L333.465 283.918L335.762 280.399L333.263 278.771L331.102 282.085L330.608 281.763L332.769 278.449L330.178 276.761L327.882 280.281L327.388 279.959L330.049 275.881Z" fill="url(#paint107_linear_417_3755)"/>
<path d="M326.039 281.953L332.41 286.526L330.606 289.036C330.133 289.694 329.618 290.086 329.051 290.227C328.484 290.368 327.921 290.237 327.36 289.835C326.999 289.575 326.744 289.275 326.601 288.928C326.468 288.579 326.435 288.212 326.5 287.829C326.577 287.444 326.751 287.061 327.025 286.68L326.999 286.926L326.911 287.048C326.73 287.3 326.512 287.476 326.253 287.583C325.999 287.694 325.694 287.7 325.327 287.613L322.478 286.907L322.918 286.294L325.631 286.98C326.017 287.091 326.333 287.064 326.576 286.905C326.819 286.757 327.063 286.512 327.309 286.17L328.478 284.545L325.64 282.508L326.039 281.953ZM328.948 284.882L327.594 286.766C327.227 287.275 327.061 287.742 327.093 288.167C327.122 288.598 327.344 288.962 327.759 289.261C328.181 289.563 328.598 289.657 329.009 289.542C329.422 289.437 329.812 289.13 330.178 288.621L331.532 286.737L328.948 284.882Z" fill="url(#paint108_linear_417_3755)"/>
<path d="M321.037 288.768L327.255 293.548L326.838 294.089L320.621 289.309L321.037 288.768Z" fill="url(#paint109_linear_417_3755)"/>
<path d="M316.717 294.037C317.208 293.443 317.746 293.043 318.341 292.823C318.932 292.62 319.548 292.603 320.193 292.764C320.834 292.932 321.477 293.277 322.117 293.806C322.758 294.334 323.216 294.898 323.497 295.49C323.778 296.092 323.875 296.697 323.782 297.311C323.684 297.941 323.395 298.547 322.905 299.141C322.545 299.576 322.158 299.905 321.742 300.129C321.332 300.357 320.892 300.488 320.422 300.522L320.175 299.948C320.665 299.878 321.078 299.756 321.426 299.569C321.779 299.386 322.107 299.111 322.415 298.738C323.012 298.015 323.239 297.275 323.095 296.518C322.957 295.765 322.471 295.055 321.647 294.376C320.823 293.696 320.031 293.351 319.259 293.354C318.488 293.356 317.804 293.718 317.207 294.441C316.898 294.815 316.687 295.186 316.569 295.562C316.456 295.943 316.417 296.375 316.442 296.869L315.831 296.735C315.775 296.267 315.817 295.808 315.964 295.352C316.11 294.906 316.363 294.466 316.717 294.037Z" fill="url(#paint110_linear_417_3755)"/>
<path d="M310.474 302.731C310.725 302.465 311.015 302.28 311.352 302.171C311.699 302.061 312.043 302.046 312.39 302.121C312.737 302.196 313.049 302.357 313.319 302.611C313.568 302.844 313.743 303.128 313.851 303.458C313.953 303.793 313.963 304.14 313.891 304.487C313.82 304.845 313.646 305.172 313.379 305.455C313.129 305.722 312.836 305.904 312.499 306.002C312.168 306.106 311.829 306.126 311.487 306.056C311.135 305.998 310.821 305.834 310.54 305.57C310.275 305.322 310.096 305.024 310 304.683C309.903 304.341 309.891 304.003 309.978 303.649C310.055 303.308 310.219 303.004 310.474 302.731Z" fill="url(#paint111_linear_417_3755)"/>
<path d="M302.378 309.485L309.674 313.444L309.14 313.931L302.32 310.2L302.596 309.948L305.624 317.138L305.195 317.529L298.393 313.782L298.64 313.557L301.702 320.715L301.191 321.181L297.934 313.539L298.415 313.1L305.016 316.744L304.852 316.894L301.908 309.914L302.378 309.485Z" fill="url(#paint112_linear_417_3755)"/>
<path d="M296.976 319.546C297.496 320.194 297.837 320.833 297.991 321.469C298.151 322.112 298.123 322.724 297.913 323.3C297.709 323.883 297.315 324.408 296.733 324.875C296.169 325.328 295.577 325.594 294.963 325.667C294.348 325.752 293.738 325.652 293.145 325.358C292.544 325.08 291.989 324.617 291.474 323.976C290.953 323.329 290.617 322.681 290.47 322.029C290.316 321.382 290.348 320.762 290.559 320.175C290.764 319.592 291.151 319.072 291.709 318.625C292.285 318.162 292.877 317.896 293.491 317.822C294.11 317.743 294.716 317.851 295.31 318.145C295.903 318.439 296.46 318.905 296.976 319.546ZM296.406 320.004C295.737 319.171 295.028 318.67 294.28 318.501C293.537 318.337 292.812 318.538 292.099 319.11C291.411 319.662 291.064 320.321 291.045 321.097C291.031 321.878 291.362 322.682 292.03 323.515C292.704 324.353 293.416 324.846 294.174 324.989C294.93 325.143 295.648 324.947 296.342 324.39C297.055 323.818 297.408 323.154 297.409 322.393C297.414 321.638 297.079 320.842 296.406 320.004Z" fill="url(#paint113_linear_417_3755)"/>
<path d="M286.97 322.44L291.555 328.8L289.047 330.606C288.396 331.075 287.775 331.289 287.193 331.242C286.611 331.195 286.118 330.892 285.715 330.333C285.455 329.972 285.309 329.606 285.284 329.232C285.269 328.858 285.354 328.5 285.538 328.158C285.733 327.817 286.02 327.509 286.401 327.235L286.298 327.46L286.176 327.548C285.924 327.729 285.662 327.827 285.381 327.846C285.112 327.866 284.814 327.779 284.494 327.58L282.017 326.006L282.63 325.564L284.984 327.077C285.321 327.3 285.623 327.379 285.903 327.306C286.181 327.243 286.491 327.088 286.833 326.842L288.458 325.672L286.415 322.839L286.97 322.44ZM288.796 326.141L286.913 327.497C286.403 327.864 286.097 328.254 285.993 328.666C285.882 329.084 285.977 329.5 286.276 329.915C286.579 330.336 286.945 330.557 287.372 330.579C287.796 330.611 288.264 330.444 288.773 330.077L290.656 328.721L288.796 326.141Z" fill="url(#paint114_linear_417_3755)"/>
<path d="M280.087 327.314L284.383 333.873L280.299 336.544L279.976 336.05L283.501 333.745L281.868 331.252L278.549 333.422L278.226 332.929L281.545 330.759L279.851 328.172L276.326 330.477L276.003 329.984L280.087 327.314Z" fill="url(#paint115_linear_417_3755)"/>
<path d="M271.108 332.855C271.771 332.462 272.419 332.262 273.047 332.261C273.671 332.27 274.264 332.457 274.81 332.832C275.362 333.202 275.844 333.748 276.268 334.462C276.692 335.176 276.94 335.857 276.997 336.513C277.064 337.171 276.943 337.777 276.648 338.322C276.35 338.879 275.866 339.355 275.203 339.749C274.718 340.037 274.242 340.216 273.775 340.286C273.312 340.362 272.854 340.337 272.399 340.21L272.368 339.582C272.846 339.686 273.284 339.707 273.674 339.648C274.061 339.599 274.47 339.447 274.88 339.204C275.693 338.721 276.157 338.101 276.277 337.34C276.395 336.589 276.185 335.753 275.639 334.835C275.094 333.917 274.458 333.329 273.738 333.066C273.011 332.808 272.245 332.918 271.432 333.4C271.022 333.643 270.69 333.926 270.459 334.236C270.224 334.556 270.034 334.953 269.897 335.423L269.36 335.095C269.466 334.635 269.669 334.213 269.96 333.833C270.249 333.464 270.629 333.139 271.108 332.855Z" fill="url(#paint116_linear_417_3755)"/>
<path d="M267.289 335.17L267.53 335.621L266.529 344.125L266.383 343.85L270.7 341.543L270.988 342.082L266.096 344.697L265.86 344.255L266.868 335.748L267.009 336.012L262.573 338.383L262.284 337.844L267.289 335.17Z" fill="url(#paint117_linear_417_3755)"/>
<path d="M260.304 338.848L263.683 345.922L263.059 346.22L261.506 342.968L261.485 342.979L259.501 347.917L258.669 348.313L260.939 342.758L261.097 343.127L254.996 341.379L255.85 340.972L261.264 342.517L261.286 342.507L259.68 339.145L260.304 338.848Z" fill="url(#paint118_linear_417_3755)"/>
<path d="M253.365 342.087L256.537 349.256L255.905 349.536L252.733 342.366L253.365 342.087Z" fill="url(#paint119_linear_417_3755)"/>
<path d="M246.775 344.896L249.509 352.244L248.943 352.454L243.306 346.671L243.604 346.561L243.103 354.624L242.551 354.829L239.817 347.481L240.413 347.26L242.864 353.847L242.581 353.952L243.065 346.275L243.535 346.1L248.913 351.599L248.63 351.704L246.179 345.118L246.775 344.896Z" fill="url(#paint120_linear_417_3755)"/>
<path d="M237.827 348.161L236.89 356.66L236.298 356.844L230.654 350.387L231.345 350.172L232.949 352.038L232.595 351.973L237.203 350.543L236.896 350.813L237.136 348.375L237.827 348.161ZM236.362 355.951L236.852 351.129L237.135 351.181L233.013 352.461L233.156 352.277L236.339 355.958L236.362 355.951Z" fill="url(#paint121_linear_417_3755)"/>
<path d="M226.823 351.398L232.085 358.128L231.362 358.317L226.462 351.997L226.754 351.921L225.54 359.833L224.84 360.015L226.161 351.57L226.823 351.398Z" fill="url(#paint122_linear_417_3755)"/>
<path d="M221 352.837L222.625 360.506L217.858 361.514L217.736 360.938L221.849 360.068L221.232 357.152L217.359 357.971L217.237 357.395L221.11 356.576L220.469 353.552L216.356 354.422L216.234 353.845L221 352.837Z" fill="url(#paint123_linear_417_3755)"/>
<path d="M213.856 354.306L215.131 362.041L212.08 362.543C211.28 362.675 210.63 362.59 210.129 362.289C209.629 361.989 209.322 361.498 209.21 360.818C209.138 360.379 209.178 359.986 209.322 359.639C209.467 359.299 209.703 359.017 210.028 358.79C210.354 358.571 210.749 358.424 211.211 358.348L211.02 358.503L210.863 358.529C210.565 358.578 210.286 358.549 210.027 358.441C209.768 358.341 209.548 358.129 209.351 357.809L207.833 355.298L208.578 355.175L210.013 357.576C210.208 357.927 210.451 358.131 210.734 358.189C211.011 358.257 211.357 358.256 211.765 358.189L213.742 357.864L213.174 354.419L213.856 354.306ZM213.836 358.434L211.553 358.81C210.934 358.912 210.486 359.124 210.209 359.448C209.924 359.773 209.823 360.188 209.906 360.692C209.991 361.204 210.219 361.565 210.592 361.774C210.958 361.992 211.451 362.049 212.071 361.947L214.353 361.572L213.836 358.434Z" fill="url(#paint124_linear_417_3755)"/>
<path d="M205.518 355.595L206.538 363.367L205.861 363.456L204.841 355.684L205.518 355.595Z" fill="url(#paint125_linear_417_3755)"/>
<path d="M198.725 356.275C199.492 356.201 200.156 356.297 200.725 356.562C201.294 356.835 201.742 357.258 202.076 357.829C202.419 358.399 202.63 359.097 202.71 359.924C202.789 360.75 202.715 361.472 202.487 362.09C202.268 362.714 201.908 363.21 201.401 363.579C200.894 363.956 200.261 364.181 199.494 364.255C198.932 364.309 198.425 364.268 197.973 364.133C197.521 364.005 197.117 363.787 196.752 363.479L196.991 362.898C197.387 363.195 197.766 363.4 198.145 363.513C198.524 363.633 198.95 363.67 199.433 363.624C200.366 363.534 201.05 363.17 201.484 362.533C201.91 361.903 202.076 361.057 201.974 359.995C201.871 358.932 201.546 358.129 201.007 357.585C200.46 357.042 199.719 356.816 198.786 356.905C198.303 356.952 197.891 357.066 197.541 357.249C197.192 357.439 196.859 357.716 196.528 358.083L196.182 357.558C196.481 357.187 196.836 356.892 197.262 356.672C197.681 356.461 198.171 356.328 198.725 356.275Z" fill="url(#paint126_linear_417_3755)"/>
<path d="M188.16 358.018C188.526 358.006 188.862 358.08 189.178 358.241C189.493 358.408 189.755 358.641 189.948 358.939C190.14 359.237 190.246 359.571 190.258 359.941C190.269 360.282 190.192 360.607 190.035 360.916C189.863 361.226 189.632 361.478 189.336 361.673C189.033 361.876 188.678 361.984 188.289 361.996C187.924 362.008 187.587 361.93 187.28 361.762C186.972 361.601 186.718 361.376 186.518 361.086C186.318 360.795 186.211 360.458 186.199 360.072C186.187 359.709 186.272 359.373 186.445 359.063C186.61 358.754 186.848 358.505 187.152 358.317C187.456 358.129 187.787 358.03 188.16 358.018Z" fill="url(#paint127_linear_417_3755)"/>
<defs>
<linearGradient id="paint0_linear_417_3755" x1="182.5" y1="-1.02671e-06" x2="199.725" y2="280.083" gradientUnits="userSpaceOnUse">
<stop stop-color="#31C48D"/>
<stop offset="1" stop-color="white" stop-opacity="0"/>
</linearGradient>
<linearGradient id="paint1_linear_417_3755" x1="182.5" y1="-1.02671e-06" x2="199.725" y2="280.083" gradientUnits="userSpaceOnUse">
<stop stop-color="#31C48D"/>
<stop offset="1" stop-color="white" stop-opacity="0"/>
</linearGradient>
<linearGradient id="paint2_linear_417_3755" x1="182.5" y1="-1.02671e-06" x2="199.725" y2="280.083" gradientUnits="userSpaceOnUse">
<stop stop-color="#31C48D"/>
<stop offset="1" stop-color="white" stop-opacity="0"/>
</linearGradient>
<linearGradient id="paint3_linear_417_3755" x1="182.5" y1="-1.02671e-06" x2="199.725" y2="280.083" gradientUnits="userSpaceOnUse">
<stop stop-color="#31C48D"/>
<stop offset="1" stop-color="white" stop-opacity="0"/>
</linearGradient>
<linearGradient id="paint4_linear_417_3755" x1="182.5" y1="-1.02671e-06" x2="199.725" y2="280.083" gradientUnits="userSpaceOnUse">
<stop stop-color="#31C48D"/>
<stop offset="1" stop-color="white" stop-opacity="0"/>
</linearGradient>
<linearGradient id="paint5_linear_417_3755" x1="182.5" y1="-1.02671e-06" x2="199.725" y2="280.083" gradientUnits="userSpaceOnUse">
<stop stop-color="#31C48D"/>
<stop offset="1" stop-color="white" stop-opacity="0"/>
</linearGradient>
<linearGradient id="paint6_linear_417_3755" x1="182.5" y1="-1.02671e-06" x2="199.725" y2="280.083" gradientUnits="userSpaceOnUse">
<stop stop-color="#31C48D"/>
<stop offset="1" stop-color="white" stop-opacity="0"/>
</linearGradient>
<linearGradient id="paint7_linear_417_3755" x1="182.5" y1="-1.02671e-06" x2="199.725" y2="280.083" gradientUnits="userSpaceOnUse">
<stop stop-color="#31C48D"/>
<stop offset="1" stop-color="white" stop-opacity="0"/>
</linearGradient>
<linearGradient id="paint8_linear_417_3755" x1="182.5" y1="-1.02671e-06" x2="199.725" y2="280.083" gradientUnits="userSpaceOnUse">
<stop stop-color="#31C48D"/>
<stop offset="1" stop-color="white" stop-opacity="0"/>
</linearGradient>
<linearGradient id="paint9_linear_417_3755" x1="182.5" y1="-1.02671e-06" x2="199.725" y2="280.083" gradientUnits="userSpaceOnUse">
<stop stop-color="#31C48D"/>
<stop offset="1" stop-color="white" stop-opacity="0"/>
</linearGradient>
<linearGradient id="paint10_linear_417_3755" x1="182.5" y1="-1.02671e-06" x2="199.725" y2="280.083" gradientUnits="userSpaceOnUse">
<stop stop-color="#31C48D"/>
<stop offset="1" stop-color="white" stop-opacity="0"/>
</linearGradient>
<linearGradient id="paint11_linear_417_3755" x1="182.5" y1="-1.02671e-06" x2="199.725" y2="280.083" gradientUnits="userSpaceOnUse">
<stop stop-color="#31C48D"/>
<stop offset="1" stop-color="white" stop-opacity="0"/>
</linearGradient>
<linearGradient id="paint12_linear_417_3755" x1="182.5" y1="-1.02671e-06" x2="199.725" y2="280.083" gradientUnits="userSpaceOnUse">
<stop stop-color="#31C48D"/>
<stop offset="1" stop-color="white" stop-opacity="0"/>
</linearGradient>
<linearGradient id="paint13_linear_417_3755" x1="182.5" y1="-1.02671e-06" x2="199.725" y2="280.083" gradientUnits="userSpaceOnUse">
<stop stop-color="#31C48D"/>
<stop offset="1" stop-color="white" stop-opacity="0"/>
</linearGradient>
<linearGradient id="paint14_linear_417_3755" x1="182.5" y1="-1.02671e-06" x2="199.725" y2="280.083" gradientUnits="userSpaceOnUse">
<stop stop-color="#31C48D"/>
<stop offset="1" stop-color="white" stop-opacity="0"/>
</linearGradient>
<linearGradient id="paint15_linear_417_3755" x1="182.5" y1="-1.02671e-06" x2="199.725" y2="280.083" gradientUnits="userSpaceOnUse">
<stop stop-color="#31C48D"/>
<stop offset="1" stop-color="white" stop-opacity="0"/>
</linearGradient>
<linearGradient id="paint16_linear_417_3755" x1="182.5" y1="-1.02671e-06" x2="199.725" y2="280.083" gradientUnits="userSpaceOnUse">
<stop stop-color="#31C48D"/>
<stop offset="1" stop-color="white" stop-opacity="0"/>
</linearGradient>
<linearGradient id="paint17_linear_417_3755" x1="182.5" y1="-1.02671e-06" x2="199.725" y2="280.083" gradientUnits="userSpaceOnUse">
<stop stop-color="#31C48D"/>
<stop offset="1" stop-color="white" stop-opacity="0"/>
</linearGradient>
<linearGradient id="paint18_linear_417_3755" x1="182.5" y1="-1.02671e-06" x2="199.725" y2="280.083" gradientUnits="userSpaceOnUse">
<stop stop-color="#31C48D"/>
<stop offset="1" stop-color="white" stop-opacity="0"/>
</linearGradient>
<linearGradient id="paint19_linear_417_3755" x1="182.5" y1="-1.02671e-06" x2="199.725" y2="280.083" gradientUnits="userSpaceOnUse">
<stop stop-color="#31C48D"/>
<stop offset="1" stop-color="white" stop-opacity="0"/>
</linearGradient>
<linearGradient id="paint20_linear_417_3755" x1="182.5" y1="-1.02671e-06" x2="199.725" y2="280.083" gradientUnits="userSpaceOnUse">
<stop stop-color="#31C48D"/>
<stop offset="1" stop-color="white" stop-opacity="0"/>
</linearGradient>
<linearGradient id="paint21_linear_417_3755" x1="182.5" y1="-1.02671e-06" x2="199.725" y2="280.083" gradientUnits="userSpaceOnUse">
<stop stop-color="#31C48D"/>
<stop offset="1" stop-color="white" stop-opacity="0"/>
</linearGradient>
<linearGradient id="paint22_linear_417_3755" x1="182.5" y1="-1.02671e-06" x2="199.725" y2="280.083" gradientUnits="userSpaceOnUse">
<stop stop-color="#31C48D"/>
<stop offset="1" stop-color="white" stop-opacity="0"/>
</linearGradient>
<linearGradient id="paint23_linear_417_3755" x1="182.5" y1="-1.02671e-06" x2="199.725" y2="280.083" gradientUnits="userSpaceOnUse">
<stop stop-color="#31C48D"/>
<stop offset="1" stop-color="white" stop-opacity="0"/>
</linearGradient>
<linearGradient id="paint24_linear_417_3755" x1="182.5" y1="-1.02671e-06" x2="199.725" y2="280.083" gradientUnits="userSpaceOnUse">
<stop stop-color="#31C48D"/>
<stop offset="1" stop-color="white" stop-opacity="0"/>
</linearGradient>
<linearGradient id="paint25_linear_417_3755" x1="182.5" y1="-1.02671e-06" x2="199.725" y2="280.083" gradientUnits="userSpaceOnUse">
<stop stop-color="#31C48D"/>
<stop offset="1" stop-color="white" stop-opacity="0"/>
</linearGradient>
<linearGradient id="paint26_linear_417_3755" x1="182.5" y1="-1.02671e-06" x2="199.725" y2="280.083" gradientUnits="userSpaceOnUse">
<stop stop-color="#31C48D"/>
<stop offset="1" stop-color="white" stop-opacity="0"/>
</linearGradient>
<linearGradient id="paint27_linear_417_3755" x1="182.5" y1="-1.02671e-06" x2="199.725" y2="280.083" gradientUnits="userSpaceOnUse">
<stop stop-color="#31C48D"/>
<stop offset="1" stop-color="white" stop-opacity="0"/>
</linearGradient>
<linearGradient id="paint28_linear_417_3755" x1="182.5" y1="-1.02671e-06" x2="199.725" y2="280.083" gradientUnits="userSpaceOnUse">
<stop stop-color="#31C48D"/>
<stop offset="1" stop-color="white" stop-opacity="0"/>
</linearGradient>
<linearGradient id="paint29_linear_417_3755" x1="182.5" y1="-1.02671e-06" x2="199.725" y2="280.083" gradientUnits="userSpaceOnUse">
<stop stop-color="#31C48D"/>
<stop offset="1" stop-color="white" stop-opacity="0"/>
</linearGradient>
<linearGradient id="paint30_linear_417_3755" x1="182.5" y1="-1.02671e-06" x2="199.725" y2="280.083" gradientUnits="userSpaceOnUse">
<stop stop-color="#31C48D"/>
<stop offset="1" stop-color="white" stop-opacity="0"/>
</linearGradient>
<linearGradient id="paint31_linear_417_3755" x1="182.5" y1="-1.02671e-06" x2="199.725" y2="280.083" gradientUnits="userSpaceOnUse">
<stop stop-color="#31C48D"/>
<stop offset="1" stop-color="white" stop-opacity="0"/>
</linearGradient>
<linearGradient id="paint32_linear_417_3755" x1="182.5" y1="-1.02671e-06" x2="199.725" y2="280.083" gradientUnits="userSpaceOnUse">
<stop stop-color="#31C48D"/>
<stop offset="1" stop-color="white" stop-opacity="0"/>
</linearGradient>
<linearGradient id="paint33_linear_417_3755" x1="182.5" y1="-1.02671e-06" x2="199.725" y2="280.083" gradientUnits="userSpaceOnUse">
<stop stop-color="#31C48D"/>
<stop offset="1" stop-color="white" stop-opacity="0"/>
</linearGradient>
<linearGradient id="paint34_linear_417_3755" x1="182.5" y1="-1.02671e-06" x2="199.725" y2="280.083" gradientUnits="userSpaceOnUse">
<stop stop-color="#31C48D"/>
<stop offset="1" stop-color="white" stop-opacity="0"/>
</linearGradient>
<linearGradient id="paint35_linear_417_3755" x1="182.5" y1="-1.02671e-06" x2="199.725" y2="280.083" gradientUnits="userSpaceOnUse">
<stop stop-color="#31C48D"/>
<stop offset="1" stop-color="white" stop-opacity="0"/>
</linearGradient>
<linearGradient id="paint36_linear_417_3755" x1="182.5" y1="-1.02671e-06" x2="199.725" y2="280.083" gradientUnits="userSpaceOnUse">
<stop stop-color="#31C48D"/>
<stop offset="1" stop-color="white" stop-opacity="0"/>
</linearGradient>
<linearGradient id="paint37_linear_417_3755" x1="182.5" y1="-1.02671e-06" x2="199.725" y2="280.083" gradientUnits="userSpaceOnUse">
<stop stop-color="#31C48D"/>
<stop offset="1" stop-color="white" stop-opacity="0"/>
</linearGradient>
<linearGradient id="paint38_linear_417_3755" x1="182.5" y1="-1.02671e-06" x2="199.725" y2="280.083" gradientUnits="userSpaceOnUse">
<stop stop-color="#31C48D"/>
<stop offset="1" stop-color="white" stop-opacity="0"/>
</linearGradient>
<linearGradient id="paint39_linear_417_3755" x1="182.5" y1="-1.02671e-06" x2="199.725" y2="280.083" gradientUnits="userSpaceOnUse">
<stop stop-color="#31C48D"/>
<stop offset="1" stop-color="white" stop-opacity="0"/>
</linearGradient>
<linearGradient id="paint40_linear_417_3755" x1="182.5" y1="-1.02671e-06" x2="199.725" y2="280.083" gradientUnits="userSpaceOnUse">
<stop stop-color="#31C48D"/>
<stop offset="1" stop-color="white" stop-opacity="0"/>
</linearGradient>
<linearGradient id="paint41_linear_417_3755" x1="182.5" y1="-1.02671e-06" x2="199.725" y2="280.083" gradientUnits="userSpaceOnUse">
<stop stop-color="#31C48D"/>
<stop offset="1" stop-color="white" stop-opacity="0"/>
</linearGradient>
<linearGradient id="paint42_linear_417_3755" x1="182.5" y1="-1.02671e-06" x2="199.725" y2="280.083" gradientUnits="userSpaceOnUse">
<stop stop-color="#31C48D"/>
<stop offset="1" stop-color="white" stop-opacity="0"/>
</linearGradient>
<linearGradient id="paint43_linear_417_3755" x1="182.5" y1="-1.02671e-06" x2="199.725" y2="280.083" gradientUnits="userSpaceOnUse">
<stop stop-color="#31C48D"/>
<stop offset="1" stop-color="white" stop-opacity="0"/>
</linearGradient>
<linearGradient id="paint44_linear_417_3755" x1="182.5" y1="-1.02671e-06" x2="199.725" y2="280.083" gradientUnits="userSpaceOnUse">
<stop stop-color="#31C48D"/>
<stop offset="1" stop-color="white" stop-opacity="0"/>
</linearGradient>
<linearGradient id="paint45_linear_417_3755" x1="182.5" y1="-1.02671e-06" x2="199.725" y2="280.083" gradientUnits="userSpaceOnUse">
<stop stop-color="#31C48D"/>
<stop offset="1" stop-color="white" stop-opacity="0"/>
</linearGradient>
<linearGradient id="paint46_linear_417_3755" x1="182.5" y1="-1.02671e-06" x2="199.725" y2="280.083" gradientUnits="userSpaceOnUse">
<stop stop-color="#31C48D"/>
<stop offset="1" stop-color="white" stop-opacity="0"/>
</linearGradient>
<linearGradient id="paint47_linear_417_3755" x1="182.5" y1="-1.02671e-06" x2="199.725" y2="280.083" gradientUnits="userSpaceOnUse">
<stop stop-color="#31C48D"/>
<stop offset="1" stop-color="white" stop-opacity="0"/>
</linearGradient>
<linearGradient id="paint48_linear_417_3755" x1="182.5" y1="-1.02671e-06" x2="199.725" y2="280.083" gradientUnits="userSpaceOnUse">
<stop stop-color="#31C48D"/>
<stop offset="1" stop-color="white" stop-opacity="0"/>
</linearGradient>
<linearGradient id="paint49_linear_417_3755" x1="182.5" y1="-1.02671e-06" x2="199.725" y2="280.083" gradientUnits="userSpaceOnUse">
<stop stop-color="#31C48D"/>
<stop offset="1" stop-color="white" stop-opacity="0"/>
</linearGradient>
<linearGradient id="paint50_linear_417_3755" x1="182.5" y1="-1.02671e-06" x2="199.725" y2="280.083" gradientUnits="userSpaceOnUse">
<stop stop-color="#31C48D"/>
<stop offset="1" stop-color="white" stop-opacity="0"/>
</linearGradient>
<linearGradient id="paint51_linear_417_3755" x1="182.5" y1="-1.02671e-06" x2="199.725" y2="280.083" gradientUnits="userSpaceOnUse">
<stop stop-color="#31C48D"/>
<stop offset="1" stop-color="white" stop-opacity="0"/>
</linearGradient>
<linearGradient id="paint52_linear_417_3755" x1="182.5" y1="-1.02671e-06" x2="199.725" y2="280.083" gradientUnits="userSpaceOnUse">
<stop stop-color="#31C48D"/>
<stop offset="1" stop-color="white" stop-opacity="0"/>
</linearGradient>
<linearGradient id="paint53_linear_417_3755" x1="182.5" y1="-1.02671e-06" x2="199.725" y2="280.083" gradientUnits="userSpaceOnUse">
<stop stop-color="#31C48D"/>
<stop offset="1" stop-color="white" stop-opacity="0"/>
</linearGradient>
<linearGradient id="paint54_linear_417_3755" x1="182.5" y1="-1.02671e-06" x2="199.725" y2="280.083" gradientUnits="userSpaceOnUse">
<stop stop-color="#31C48D"/>
<stop offset="1" stop-color="white" stop-opacity="0"/>
</linearGradient>
<linearGradient id="paint55_linear_417_3755" x1="182.5" y1="-1.02671e-06" x2="199.725" y2="280.083" gradientUnits="userSpaceOnUse">
<stop stop-color="#31C48D"/>
<stop offset="1" stop-color="white" stop-opacity="0"/>
</linearGradient>
<linearGradient id="paint56_linear_417_3755" x1="182.5" y1="-1.02671e-06" x2="199.725" y2="280.083" gradientUnits="userSpaceOnUse">
<stop stop-color="#31C48D"/>
<stop offset="1" stop-color="white" stop-opacity="0"/>
</linearGradient>
<linearGradient id="paint57_linear_417_3755" x1="182.5" y1="-1.02671e-06" x2="199.725" y2="280.083" gradientUnits="userSpaceOnUse">
<stop stop-color="#31C48D"/>
<stop offset="1" stop-color="white" stop-opacity="0"/>
</linearGradient>
<linearGradient id="paint58_linear_417_3755" x1="182.5" y1="-1.02671e-06" x2="199.725" y2="280.083" gradientUnits="userSpaceOnUse">
<stop stop-color="#31C48D"/>
<stop offset="1" stop-color="white" stop-opacity="0"/>
</linearGradient>
<linearGradient id="paint59_linear_417_3755" x1="182.5" y1="-1.02671e-06" x2="199.725" y2="280.083" gradientUnits="userSpaceOnUse">
<stop stop-color="#31C48D"/>
<stop offset="1" stop-color="white" stop-opacity="0"/>
</linearGradient>
<linearGradient id="paint60_linear_417_3755" x1="182.5" y1="-1.02671e-06" x2="199.725" y2="280.083" gradientUnits="userSpaceOnUse">
<stop stop-color="#31C48D"/>
<stop offset="1" stop-color="white" stop-opacity="0"/>
</linearGradient>
<linearGradient id="paint61_linear_417_3755" x1="182.5" y1="-1.02671e-06" x2="199.725" y2="280.083" gradientUnits="userSpaceOnUse">
<stop stop-color="#31C48D"/>
<stop offset="1" stop-color="white" stop-opacity="0"/>
</linearGradient>
<linearGradient id="paint62_linear_417_3755" x1="182.5" y1="-1.02671e-06" x2="199.725" y2="280.083" gradientUnits="userSpaceOnUse">
<stop stop-color="#31C48D"/>
<stop offset="1" stop-color="white" stop-opacity="0"/>
</linearGradient>
<linearGradient id="paint63_linear_417_3755" x1="182.5" y1="-1.02671e-06" x2="199.725" y2="280.083" gradientUnits="userSpaceOnUse">
<stop stop-color="#31C48D"/>
<stop offset="1" stop-color="white" stop-opacity="0"/>
</linearGradient>
<linearGradient id="paint64_linear_417_3755" x1="182.5" y1="-1.02671e-06" x2="199.725" y2="280.083" gradientUnits="userSpaceOnUse">
<stop stop-color="#31C48D"/>
<stop offset="1" stop-color="white" stop-opacity="0"/>
</linearGradient>
<linearGradient id="paint65_linear_417_3755" x1="182.5" y1="-1.02671e-06" x2="199.725" y2="280.083" gradientUnits="userSpaceOnUse">
<stop stop-color="#31C48D"/>
<stop offset="1" stop-color="white" stop-opacity="0"/>
</linearGradient>
<linearGradient id="paint66_linear_417_3755" x1="182.5" y1="-1.02671e-06" x2="199.725" y2="280.083" gradientUnits="userSpaceOnUse">
<stop stop-color="#31C48D"/>
<stop offset="1" stop-color="white" stop-opacity="0"/>
</linearGradient>
<linearGradient id="paint67_linear_417_3755" x1="182.5" y1="-1.02671e-06" x2="199.725" y2="280.083" gradientUnits="userSpaceOnUse">
<stop stop-color="#31C48D"/>
<stop offset="1" stop-color="white" stop-opacity="0"/>
</linearGradient>
<linearGradient id="paint68_linear_417_3755" x1="182.5" y1="-1.02671e-06" x2="199.725" y2="280.083" gradientUnits="userSpaceOnUse">
<stop stop-color="#31C48D"/>
<stop offset="1" stop-color="white" stop-opacity="0"/>
</linearGradient>
<linearGradient id="paint69_linear_417_3755" x1="182.5" y1="-1.02671e-06" x2="199.725" y2="280.083" gradientUnits="userSpaceOnUse">
<stop stop-color="#31C48D"/>
<stop offset="1" stop-color="white" stop-opacity="0"/>
</linearGradient>
<linearGradient id="paint70_linear_417_3755" x1="182.5" y1="-1.02671e-06" x2="199.725" y2="280.083" gradientUnits="userSpaceOnUse">
<stop stop-color="#31C48D"/>
<stop offset="1" stop-color="white" stop-opacity="0"/>
</linearGradient>
<linearGradient id="paint71_linear_417_3755" x1="182.5" y1="-1.02671e-06" x2="199.725" y2="280.083" gradientUnits="userSpaceOnUse">
<stop stop-color="#31C48D"/>
<stop offset="1" stop-color="white" stop-opacity="0"/>
</linearGradient>
<linearGradient id="paint72_linear_417_3755" x1="182.5" y1="-1.02671e-06" x2="199.725" y2="280.083" gradientUnits="userSpaceOnUse">
<stop stop-color="#31C48D"/>
<stop offset="1" stop-color="white" stop-opacity="0"/>
</linearGradient>
<linearGradient id="paint73_linear_417_3755" x1="182.5" y1="-1.02671e-06" x2="199.725" y2="280.083" gradientUnits="userSpaceOnUse">
<stop stop-color="#31C48D"/>
<stop offset="1" stop-color="white" stop-opacity="0"/>
</linearGradient>
<linearGradient id="paint74_linear_417_3755" x1="182.5" y1="-1.02671e-06" x2="199.725" y2="280.083" gradientUnits="userSpaceOnUse">
<stop stop-color="#31C48D"/>
<stop offset="1" stop-color="white" stop-opacity="0"/>
</linearGradient>
<linearGradient id="paint75_linear_417_3755" x1="182.5" y1="-1.02671e-06" x2="199.725" y2="280.083" gradientUnits="userSpaceOnUse">
<stop stop-color="#31C48D"/>
<stop offset="1" stop-color="white" stop-opacity="0"/>
</linearGradient>
<linearGradient id="paint76_linear_417_3755" x1="182.5" y1="-1.02671e-06" x2="199.725" y2="280.083" gradientUnits="userSpaceOnUse">
<stop stop-color="#31C48D"/>
<stop offset="1" stop-color="white" stop-opacity="0"/>
</linearGradient>
<linearGradient id="paint77_linear_417_3755" x1="182.5" y1="-1.02671e-06" x2="199.725" y2="280.083" gradientUnits="userSpaceOnUse">
<stop stop-color="#31C48D"/>
<stop offset="1" stop-color="white" stop-opacity="0"/>
</linearGradient>
<linearGradient id="paint78_linear_417_3755" x1="182.5" y1="-1.02671e-06" x2="199.725" y2="280.083" gradientUnits="userSpaceOnUse">
<stop stop-color="#31C48D"/>
<stop offset="1" stop-color="white" stop-opacity="0"/>
</linearGradient>
<linearGradient id="paint79_linear_417_3755" x1="182.5" y1="-1.02671e-06" x2="199.725" y2="280.083" gradientUnits="userSpaceOnUse">
<stop stop-color="#31C48D"/>
<stop offset="1" stop-color="white" stop-opacity="0"/>
</linearGradient>
<linearGradient id="paint80_linear_417_3755" x1="182.5" y1="-1.02671e-06" x2="199.725" y2="280.083" gradientUnits="userSpaceOnUse">
<stop stop-color="#31C48D"/>
<stop offset="1" stop-color="white" stop-opacity="0"/>
</linearGradient>
<linearGradient id="paint81_linear_417_3755" x1="182.5" y1="-1.02671e-06" x2="199.725" y2="280.083" gradientUnits="userSpaceOnUse">
<stop stop-color="#31C48D"/>
<stop offset="1" stop-color="white" stop-opacity="0"/>
</linearGradient>
<linearGradient id="paint82_linear_417_3755" x1="182.5" y1="-1.02671e-06" x2="199.725" y2="280.083" gradientUnits="userSpaceOnUse">
<stop stop-color="#31C48D"/>
<stop offset="1" stop-color="white" stop-opacity="0"/>
</linearGradient>
<linearGradient id="paint83_linear_417_3755" x1="182.5" y1="-1.02671e-06" x2="199.725" y2="280.083" gradientUnits="userSpaceOnUse">
<stop stop-color="#31C48D"/>
<stop offset="1" stop-color="white" stop-opacity="0"/>
</linearGradient>
<linearGradient id="paint84_linear_417_3755" x1="182.5" y1="-1.02671e-06" x2="199.725" y2="280.083" gradientUnits="userSpaceOnUse">
<stop stop-color="#31C48D"/>
<stop offset="1" stop-color="white" stop-opacity="0"/>
</linearGradient>
<linearGradient id="paint85_linear_417_3755" x1="182.5" y1="-1.02671e-06" x2="199.725" y2="280.083" gradientUnits="userSpaceOnUse">
<stop stop-color="#31C48D"/>
<stop offset="1" stop-color="white" stop-opacity="0"/>
</linearGradient>
<linearGradient id="paint86_linear_417_3755" x1="182.5" y1="-1.02671e-06" x2="199.725" y2="280.083" gradientUnits="userSpaceOnUse">
<stop stop-color="#31C48D"/>
<stop offset="1" stop-color="white" stop-opacity="0"/>
</linearGradient>
<linearGradient id="paint87_linear_417_3755" x1="182.5" y1="-1.02671e-06" x2="199.725" y2="280.083" gradientUnits="userSpaceOnUse">
<stop stop-color="#31C48D"/>
<stop offset="1" stop-color="white" stop-opacity="0"/>
</linearGradient>
<linearGradient id="paint88_linear_417_3755" x1="182.5" y1="-1.02671e-06" x2="199.725" y2="280.083" gradientUnits="userSpaceOnUse">
<stop stop-color="#31C48D"/>
<stop offset="1" stop-color="white" stop-opacity="0"/>
</linearGradient>
<linearGradient id="paint89_linear_417_3755" x1="182.5" y1="-1.02671e-06" x2="199.725" y2="280.083" gradientUnits="userSpaceOnUse">
<stop stop-color="#31C48D"/>
<stop offset="1" stop-color="white" stop-opacity="0"/>
</linearGradient>
<linearGradient id="paint90_linear_417_3755" x1="182.5" y1="-1.02671e-06" x2="199.725" y2="280.083" gradientUnits="userSpaceOnUse">
<stop stop-color="#31C48D"/>
<stop offset="1" stop-color="white" stop-opacity="0"/>
</linearGradient>
<linearGradient id="paint91_linear_417_3755" x1="182.5" y1="-1.02671e-06" x2="199.725" y2="280.083" gradientUnits="userSpaceOnUse">
<stop stop-color="#31C48D"/>
<stop offset="1" stop-color="white" stop-opacity="0"/>
</linearGradient>
<linearGradient id="paint92_linear_417_3755" x1="182.5" y1="-1.02671e-06" x2="199.725" y2="280.083" gradientUnits="userSpaceOnUse">
<stop stop-color="#31C48D"/>
<stop offset="1" stop-color="white" stop-opacity="0"/>
</linearGradient>
<linearGradient id="paint93_linear_417_3755" x1="182.5" y1="-1.02671e-06" x2="199.725" y2="280.083" gradientUnits="userSpaceOnUse">
<stop stop-color="#31C48D"/>
<stop offset="1" stop-color="white" stop-opacity="0"/>
</linearGradient>
<linearGradient id="paint94_linear_417_3755" x1="182.5" y1="-1.02671e-06" x2="199.725" y2="280.083" gradientUnits="userSpaceOnUse">
<stop stop-color="#31C48D"/>
<stop offset="1" stop-color="white" stop-opacity="0"/>
</linearGradient>
<linearGradient id="paint95_linear_417_3755" x1="182.5" y1="-1.02671e-06" x2="199.725" y2="280.083" gradientUnits="userSpaceOnUse">
<stop stop-color="#31C48D"/>
<stop offset="1" stop-color="white" stop-opacity="0"/>
</linearGradient>
<linearGradient id="paint96_linear_417_3755" x1="182.5" y1="-1.02671e-06" x2="199.725" y2="280.083" gradientUnits="userSpaceOnUse">
<stop stop-color="#31C48D"/>
<stop offset="1" stop-color="white" stop-opacity="0"/>
</linearGradient>
<linearGradient id="paint97_linear_417_3755" x1="182.5" y1="-1.02671e-06" x2="199.725" y2="280.083" gradientUnits="userSpaceOnUse">
<stop stop-color="#31C48D"/>
<stop offset="1" stop-color="white" stop-opacity="0"/>
</linearGradient>
<linearGradient id="paint98_linear_417_3755" x1="182.5" y1="-1.02671e-06" x2="199.725" y2="280.083" gradientUnits="userSpaceOnUse">
<stop stop-color="#31C48D"/>
<stop offset="1" stop-color="white" stop-opacity="0"/>
</linearGradient>
<linearGradient id="paint99_linear_417_3755" x1="182.5" y1="-1.02671e-06" x2="199.725" y2="280.083" gradientUnits="userSpaceOnUse">
<stop stop-color="#31C48D"/>
<stop offset="1" stop-color="white" stop-opacity="0"/>
</linearGradient>
<linearGradient id="paint100_linear_417_3755" x1="182.5" y1="-1.02671e-06" x2="199.725" y2="280.083" gradientUnits="userSpaceOnUse">
<stop stop-color="#31C48D"/>
<stop offset="1" stop-color="white" stop-opacity="0"/>
</linearGradient>
<linearGradient id="paint101_linear_417_3755" x1="182.5" y1="-1.02671e-06" x2="199.725" y2="280.083" gradientUnits="userSpaceOnUse">
<stop stop-color="#31C48D"/>
<stop offset="1" stop-color="white" stop-opacity="0"/>
</linearGradient>
<linearGradient id="paint102_linear_417_3755" x1="182.5" y1="-1.02671e-06" x2="199.725" y2="280.083" gradientUnits="userSpaceOnUse">
<stop stop-color="#31C48D"/>
<stop offset="1" stop-color="white" stop-opacity="0"/>
</linearGradient>
<linearGradient id="paint103_linear_417_3755" x1="182.5" y1="-1.02671e-06" x2="199.725" y2="280.083" gradientUnits="userSpaceOnUse">
<stop stop-color="#31C48D"/>
<stop offset="1" stop-color="white" stop-opacity="0"/>
</linearGradient>
<linearGradient id="paint104_linear_417_3755" x1="182.5" y1="-1.02671e-06" x2="199.725" y2="280.083" gradientUnits="userSpaceOnUse">
<stop stop-color="#31C48D"/>
<stop offset="1" stop-color="white" stop-opacity="0"/>
</linearGradient>
<linearGradient id="paint105_linear_417_3755" x1="182.5" y1="-1.02671e-06" x2="199.725" y2="280.083" gradientUnits="userSpaceOnUse">
<stop stop-color="#31C48D"/>
<stop offset="1" stop-color="white" stop-opacity="0"/>
</linearGradient>
<linearGradient id="paint106_linear_417_3755" x1="182.5" y1="-1.02671e-06" x2="199.725" y2="280.083" gradientUnits="userSpaceOnUse">
<stop stop-color="#31C48D"/>
<stop offset="1" stop-color="white" stop-opacity="0"/>
</linearGradient>
<linearGradient id="paint107_linear_417_3755" x1="182.5" y1="-1.02671e-06" x2="199.725" y2="280.083" gradientUnits="userSpaceOnUse">
<stop stop-color="#31C48D"/>
<stop offset="1" stop-color="white" stop-opacity="0"/>
</linearGradient>
<linearGradient id="paint108_linear_417_3755" x1="182.5" y1="-1.02671e-06" x2="199.725" y2="280.083" gradientUnits="userSpaceOnUse">
<stop stop-color="#31C48D"/>
<stop offset="1" stop-color="white" stop-opacity="0"/>
</linearGradient>
<linearGradient id="paint109_linear_417_3755" x1="182.5" y1="-1.02671e-06" x2="199.725" y2="280.083" gradientUnits="userSpaceOnUse">
<stop stop-color="#31C48D"/>
<stop offset="1" stop-color="white" stop-opacity="0"/>
</linearGradient>
<linearGradient id="paint110_linear_417_3755" x1="182.5" y1="-1.02671e-06" x2="199.725" y2="280.083" gradientUnits="userSpaceOnUse">
<stop stop-color="#31C48D"/>
<stop offset="1" stop-color="white" stop-opacity="0"/>
</linearGradient>
<linearGradient id="paint111_linear_417_3755" x1="182.5" y1="-1.02671e-06" x2="199.725" y2="280.083" gradientUnits="userSpaceOnUse">
<stop stop-color="#31C48D"/>
<stop offset="1" stop-color="white" stop-opacity="0"/>
</linearGradient>
<linearGradient id="paint112_linear_417_3755" x1="182.5" y1="-1.02671e-06" x2="199.725" y2="280.083" gradientUnits="userSpaceOnUse">
<stop stop-color="#31C48D"/>
<stop offset="1" stop-color="white" stop-opacity="0"/>
</linearGradient>
<linearGradient id="paint113_linear_417_3755" x1="182.5" y1="-1.02671e-06" x2="199.725" y2="280.083" gradientUnits="userSpaceOnUse">
<stop stop-color="#31C48D"/>
<stop offset="1" stop-color="white" stop-opacity="0"/>
</linearGradient>
<linearGradient id="paint114_linear_417_3755" x1="182.5" y1="-1.02671e-06" x2="199.725" y2="280.083" gradientUnits="userSpaceOnUse">
<stop stop-color="#31C48D"/>
<stop offset="1" stop-color="white" stop-opacity="0"/>
</linearGradient>
<linearGradient id="paint115_linear_417_3755" x1="182.5" y1="-1.02671e-06" x2="199.725" y2="280.083" gradientUnits="userSpaceOnUse">
<stop stop-color="#31C48D"/>
<stop offset="1" stop-color="white" stop-opacity="0"/>
</linearGradient>
<linearGradient id="paint116_linear_417_3755" x1="182.5" y1="-1.02671e-06" x2="199.725" y2="280.083" gradientUnits="userSpaceOnUse">
<stop stop-color="#31C48D"/>
<stop offset="1" stop-color="white" stop-opacity="0"/>
</linearGradient>
<linearGradient id="paint117_linear_417_3755" x1="182.5" y1="-1.02671e-06" x2="199.725" y2="280.083" gradientUnits="userSpaceOnUse">
<stop stop-color="#31C48D"/>
<stop offset="1" stop-color="white" stop-opacity="0"/>
</linearGradient>
<linearGradient id="paint118_linear_417_3755" x1="182.5" y1="-1.02671e-06" x2="199.725" y2="280.083" gradientUnits="userSpaceOnUse">
<stop stop-color="#31C48D"/>
<stop offset="1" stop-color="white" stop-opacity="0"/>
</linearGradient>
<linearGradient id="paint119_linear_417_3755" x1="182.5" y1="-1.02671e-06" x2="199.725" y2="280.083" gradientUnits="userSpaceOnUse">
<stop stop-color="#31C48D"/>
<stop offset="1" stop-color="white" stop-opacity="0"/>
</linearGradient>
<linearGradient id="paint120_linear_417_3755" x1="182.5" y1="-1.02671e-06" x2="199.725" y2="280.083" gradientUnits="userSpaceOnUse">
<stop stop-color="#31C48D"/>
<stop offset="1" stop-color="white" stop-opacity="0"/>
</linearGradient>
<linearGradient id="paint121_linear_417_3755" x1="182.5" y1="-1.02671e-06" x2="199.725" y2="280.083" gradientUnits="userSpaceOnUse">
<stop stop-color="#31C48D"/>
<stop offset="1" stop-color="white" stop-opacity="0"/>
</linearGradient>
<linearGradient id="paint122_linear_417_3755" x1="182.5" y1="-1.02671e-06" x2="199.725" y2="280.083" gradientUnits="userSpaceOnUse">
<stop stop-color="#31C48D"/>
<stop offset="1" stop-color="white" stop-opacity="0"/>
</linearGradient>
<linearGradient id="paint123_linear_417_3755" x1="182.5" y1="-1.02671e-06" x2="199.725" y2="280.083" gradientUnits="userSpaceOnUse">
<stop stop-color="#31C48D"/>
<stop offset="1" stop-color="white" stop-opacity="0"/>
</linearGradient>
<linearGradient id="paint124_linear_417_3755" x1="182.5" y1="-1.02671e-06" x2="199.725" y2="280.083" gradientUnits="userSpaceOnUse">
<stop stop-color="#31C48D"/>
<stop offset="1" stop-color="white" stop-opacity="0"/>
</linearGradient>
<linearGradient id="paint125_linear_417_3755" x1="182.5" y1="-1.02671e-06" x2="199.725" y2="280.083" gradientUnits="userSpaceOnUse">
<stop stop-color="#31C48D"/>
<stop offset="1" stop-color="white" stop-opacity="0"/>
</linearGradient>
<linearGradient id="paint126_linear_417_3755" x1="182.5" y1="-1.02671e-06" x2="199.725" y2="280.083" gradientUnits="userSpaceOnUse">
<stop stop-color="#31C48D"/>
<stop offset="1" stop-color="white" stop-opacity="0"/>
</linearGradient>
<linearGradient id="paint127_linear_417_3755" x1="182.5" y1="-1.02671e-06" x2="199.725" y2="280.083" gradientUnits="userSpaceOnUse">
<stop stop-color="#31C48D"/>
<stop offset="1" stop-color="white" stop-opacity="0"/>
</linearGradient>
</defs>
</svg>
