<svg width="25" height="24" viewBox="0 0 25 24" fill="none" xmlns="http://www.w3.org/2000/svg">
<path fill-rule="evenodd" clip-rule="evenodd" d="M19.0342 22.0005C19.023 22.0009 19.0118 22.0011 19.0006 22.0011C18.8692 22.0011 18.7391 21.9752 18.6177 21.9249C18.4963 21.8747 18.386 21.801 18.2931 21.7081L11.5006 14.9146L4.70816 21.7081C4.61525 21.801 4.50495 21.8747 4.38356 21.9249C4.26217 21.9752 4.13206 22.0011 4.00066 22.0011C3.86927 22.0011 3.73916 21.9752 3.61777 21.9249C3.49637 21.8747 3.38607 21.801 3.29316 21.7081C3.20025 21.6151 3.12655 21.5048 3.07627 21.3835C3.02599 21.2621 3.00011 21.132 3.00011 21.0006C3.00011 20.8692 3.02599 20.7391 3.07627 20.6177C3.12655 20.4963 3.20025 20.386 3.29316 20.2931L10.0867 13.5005L10.0006 13.4143L8.58681 12.0006L0.293056 3.70806C0.105415 3.52042 0 3.26592 0 3.00056C0 2.73519 0.105415 2.4807 0.293056 2.29306C0.480697 2.10542 0.735192 2 1.00056 2C1.01163 2 1.02269 2.00018 1.03372 2.00055H5.96739C5.97842 2.00018 5.98948 2 6.00056 2C6.26592 2 6.52042 2.10542 6.70806 2.29306L14.0006 9.58671L21.2932 2.29306C21.4808 2.10542 21.7353 2 22.0007 2C22.266 2 22.5205 2.10542 22.7082 2.29306C22.8958 2.4807 23.0012 2.73519 23.0012 3.00056C23.0012 3.26592 22.8958 3.52042 22.7082 3.70806L15.4144 11.0007L16.4143 12.0006L24.7081 20.2931C24.801 20.386 24.8747 20.4963 24.9249 20.6177C24.9752 20.7391 25.0011 20.8692 25.0011 21.0006C25.0011 21.132 24.9752 21.2621 24.9249 21.3835C24.8747 21.5048 24.801 21.6151 24.7081 21.7081C24.6151 21.801 24.5048 21.8747 24.3835 21.9249C24.2621 21.9752 24.132 22.0011 24.0006 22.0011C23.9893 22.0011 23.9781 22.0009 23.9669 22.0005H19.0342ZM21.5858 20.0005L15.0006 13.4143L13.5868 12.0006L5.58559 4.00055H3.41529L10.0006 10.5868L11.4143 12.0006L19.4155 20.0005H21.5858Z" fill="#0E9F6E"/>
</svg>
